<svg id="Layer_1" xmlns="http://www.w3.org/2000/svg" xmlns:xlink="http://www.w3.org/1999/xlink" viewBox="0 0 841.9 595.3"><style>.st0{fill:#1d1d1b}</style><path class="st0" d="M672.5 46.1v503H269.4l-50-50-6.1-6.1v56.1h-43.8v-503h403.1l50 50 6.1 6.1V46.1h43.8m3.6-3.6h-51v51l-51-51H165.8v510.2h51v-51l51 51H676V42.5h.1zM88.5 391.7H63.8V203.6h36.9l20.8 151.5c-2.9-33.7-7.9-97.5-7.9-125.7v-25.8h24.8v188.1h-35.6l-17.4-141c1.6 29.8 3.2 65.3 3.2 85.4v55.6z"/><path class="st0" d="M200.3 391.7h-50.6V203.6h50.6v26.9h-22.1v53.2h19v23.7h-19v57.4h22.1v26.9zm54.5-161.3v161.3h-28.5V230.4h-17.9v-26.9H273v26.9h-18.2zM332 391.7h-24.8V203.6h36.9L365 355.1c-2.9-33.7-7.9-97.5-7.9-125.7v-25.8h24.8v188.1h-35.6l-17.4-141c1.6 29.8 3.2 65.3 3.2 85.4v55.6zm101.5-24h-13.2l-1.1 24h-28.7l16.1-188.1h42.2l15.5 188.1h-29.8l-1-24zM421.1 344h11.3l-2.4-53.7c-.5-7.6-2.4-49.5-3.7-71.7-1.3 22.4-2.9 64.8-3.2 71.7l-2 53.7zm87.4-113.6v161.3H480V230.4h-17.9v-26.9h64.6v26.9h-18.2zm53.8-26.8v188.1h-28.5V203.6h28.5zm27.2 188.1l-18.7-188.1h29.8l4.5 94.1 3.2 66.1c1.1-21.1 2.1-48 3.2-66.4l4.2-93.8h29L625 391.7h-35.5zm114.1 0H653V203.6h50.6v26.9h-22.1v53.2h19v23.7h-19v57.4h22.1v26.9zm74.2-37.9c0 28.2-14.5 39.5-33.7 39.5-23.2 0-34.5-12.6-34.5-38.5V330h28.5v26.6c0 7.1 2.1 9.7 5.8 9.7 4.7 0 5.5-5.3 5.5-12.4v-7.1c0-13.2-3.2-15.3-17.9-37.9-13.4-20.3-20.8-37.4-20.8-56.1v-7.6c0-27.9 11.9-43.2 34-43.2 19 0 33.5 5.8 33.5 43.2v22.1h-27.9v-24.5c0-8.7-1.1-14-5.5-14-4.7 0-6.1 4.2-6.1 14v5c0 13.7 5.5 23.7 17.9 42.9 13.4 21.3 21.3 32.4 21.3 53.8v9.3z"/></svg>