<svg id="background" xmlns="http://www.w3.org/2000/svg" xmlns:xlink="http://www.w3.org/1999/xlink" viewBox="0 0 300 250"><defs><style>.cls-1,.cls-5{fill:none;}.cls-2{clip-path:url(#clip-path);}.cls-3{opacity:0.1;}.cls-4{clip-path:url(#clip-path-2);}.cls-5{stroke:#c0bebe;stroke-linecap:round;stroke-linejoin:round;}.cls-6{clip-path:url(#clip-path-3);}.cls-7{clip-path:url(#clip-path-4);}.cls-8{clip-path:url(#clip-path-5);}.cls-9{fill:#fff;}.cls-10{clip-path:url(#clip-path-6);}.cls-11{clip-path:url(#clip-path-7);}</style><clipPath id="clip-path"><rect class="cls-1" y="-308.35" width="300" height="250"/></clipPath><clipPath id="clip-path-2"><rect class="cls-1" x="-778.38" y="-520.2" width="1856.37" height="673.7"/></clipPath><clipPath id="clip-path-3"><rect class="cls-1" y="305.99" width="300" height="250"/></clipPath><clipPath id="clip-path-4"><rect class="cls-1" x="-778.38" y="94.13" width="1856.37" height="673.7"/></clipPath><clipPath id="clip-path-5"><rect class="cls-1" x="-777.25" y="95.26" width="1854.11" height="671.45"/></clipPath><clipPath id="clip-path-6"><rect class="cls-1" width="300" height="250"/></clipPath><clipPath id="clip-path-7"><rect class="cls-1" x="-778.38" y="-211.85" width="1856.37" height="673.7"/></clipPath></defs><title>Artboard 1 copy 19</title><g class="cls-2"><g class="cls-3"><g class="cls-4"><path class="cls-5" d="M-56.95,68.8H18.33l5.12,9.67H-40.26l20.8,35.44M-4.52,88.09l-20.36,35.05L-56.95,68.8-62.22,78l37.34,64.59L6.76,88.14l-41-.15m9.37,54.63h11L23.45,78.47"/><path class="cls-5" d="M45.86,97.51,25.06,133H88.77l-5.12,9.67H8.37m22.7-19.19,41-.14L40.44,68.8,3.09,133.39l5.28,9.23L40.44,88.28,60.8,123.33m28,9.62L51.43,68.8h-11"/><path class="cls-5" d="M73.69,68.8H149l5.12,9.67H90.38l20.8,35.44m14.94-25.82-20.36,35.05L73.69,68.8,68.41,78l37.35,64.59L137.4,88.14l-41-.15m9.37,54.63h11l37.35-64.15"/><path class="cls-5" d="M176.5,97.51,155.7,133h63.71l-5.13,9.67H139m22.7-19.19,41-.14L171.08,68.8l-37.35,64.59,5.28,9.23,32.07-54.34,20.36,35.05m28,9.62L182.06,68.8h-11"/><path class="cls-5" d="M204.33,68.8H279.6l5.13,9.67H221l20.8,35.44m14.94-25.82L236.4,123.14,204.33,68.8,199.05,78l37.35,64.59L268,88.14,227,88m9.37,54.63h11l37.35-64.15"/><path class="cls-5" d="M307.14,97.51,286.34,133h63.71l-5.13,9.67H269.65m22.7-19.19,41-.14L301.72,68.8l-37.35,64.59,5.28,9.23,32.07-54.34,20.36,35.05m28,9.62L312.7,68.8h-11"/><path class="cls-5" d="M-56.8-15.18H18.48l5.13,9.67H-40.1l20.8,35.44M-4.36,4.11-24.72,39.16-56.8-15.18l-5.27,9.23,37.35,64.58L6.91,4.15l-41-.14m9.37,54.62h11L23.61-5.51"/><path class="cls-5" d="M46,13.53,25.22,49h63.7L83.8,58.63H8.52m22.7-19.18,41-.15L40.59-15.18,3.25,49.41l5.27,9.22L40.59,4.3,61,39.34m28,9.63L51.58-15.18h-11"/><path class="cls-5" d="M73.83-15.18h75.28l5.13,9.67H90.53l20.8,35.44M126.26,4.11,105.91,39.16,73.83-15.18,68.56-5.95l37.35,64.58L137.54,4.15,96.53,4m9.38,54.62h11L154.24-5.51"/><path class="cls-5" d="M176.64,13.53,155.84,49h63.71l-5.12,9.66H139.15m22.7-19.18,41-.15L171.22-15.18,133.88,49.41l5.27,9.22L171.22,4.3l20.36,35m28,9.63L182.21-15.18h-11"/><path class="cls-5" d="M204.46-15.18h75.28l5.13,9.67H221.16L242,29.93M256.89,4.11,236.54,39.16,204.46-15.18l-5.27,9.23,37.35,64.58L268.17,4.15l-41-.14m9.38,54.62h11L284.87-5.51"/><path class="cls-5" d="M307.27,13.53,286.47,49h63.71l-5.13,9.66H269.78m22.7-19.18,41-.15L301.85-15.18,264.5,49.41l5.28,9.22L301.85,4.3l20.36,35m28,9.63L312.83-15.18h-11"/></g></g></g><g class="cls-6"><g class="cls-3"><g class="cls-7"><path class="cls-5" d="M-56.7,179.25H18.58l5.12,9.66H-40l20.8,35.44m14.94-25.81-20.36,35L-56.7,179.25-62,188.47l37.34,64.59L7,198.58l-41-.15m9.37,54.63h11L23.7,188.91"/><path class="cls-5" d="M46.1,208,25.31,243.39H89l-5.13,9.67H8.61m22.7-19.19,41-.14L40.68,179.24,3.34,243.83l5.27,9.23,32.07-54.34L61,233.77m28,9.62L51.67,179.24h-11"/><path class="cls-5" d="M73.92,179.25H149.2l5.13,9.66H90.62l20.79,35.44m14.94-25.81-20.35,35L73.92,179.25l-5.27,9.22L106,253.06l31.63-54.48-41-.15M106,253.06h11l37.35-64.15"/><path class="cls-5" d="M176.73,208l-20.8,35.44h63.71l-5.13,9.67H139.23m22.7-19.19,41-.14-31.63-54.49L134,243.83l5.27,9.23,32.08-54.34,20.35,35.05m28,9.62-37.35-64.15h-11"/><path class="cls-5" d="M204.55,179.25h75.28l5.12,9.66H221.24L242,224.35M257,198.54l-20.36,35-32.07-54.33-5.28,9.22,37.35,64.59,31.63-54.48-41-.15m9.37,54.63h11L285,188.91"/><path class="cls-5" d="M307.35,208l-20.8,35.44h63.71l-5.12,9.67H269.86m22.7-19.19,41-.14-31.64-54.49-37.34,64.59,5.27,9.23,32.07-54.34,20.36,35.05m28,9.62-37.34-64.15h-11"/><g class="cls-8"><path class="cls-5" d="M-56.71,95.26H18.57l5.13,9.67H-40l20.79,35.44m14.94-25.82L-24.63,149.6-56.71,95.26-62,104.49l37.35,64.59L7,114.59l-41-.14m9.38,54.63h11L23.7,104.93"/><path class="cls-5" d="M46.1,124,25.3,159.41H89l-5.13,9.67H8.6m22.7-19.19,41-.15L40.68,95.26,3.33,159.85l5.27,9.23,32.08-54.34,20.35,35m28,9.63L51.66,95.26h-11"/><path class="cls-5" d="M73.91,95.26h75.28l5.13,9.67H90.61l20.8,35.44m14.94-25.82L106,149.6,73.91,95.26l-5.27,9.23L106,169.08l31.63-54.49-41-.14M106,169.08h11l37.35-64.15"/><path class="cls-5" d="M176.72,124l-20.8,35.44h63.71l-5.13,9.67H139.23m22.7-19.19,41-.15L171.3,95.26,134,159.85l5.28,9.23,32.07-54.34,20.36,35m28,9.63L182.28,95.26h-11"/><path class="cls-5" d="M204.54,95.26h75.28l5.12,9.67H221.23L242,140.37M257,114.55,236.61,149.6,204.54,95.26l-5.27,9.23,37.34,64.59,31.64-54.49-41-.14m9.37,54.63h11l37.34-64.15"/><path class="cls-5" d="M307.34,124l-20.79,35.44h63.7l-5.12,9.67H269.85m22.7-19.19,41-.15L301.92,95.26l-37.34,64.59,5.27,9.23,32.07-54.34,20.36,35m28,9.63L312.91,95.26h-11"/></g></g></g></g><rect class="cls-9" width="300" height="250"/><g class="cls-10"><g class="cls-3"><g class="cls-11"><path class="cls-5" d="M-8.24,237.89-29,273.34H34.67L29.54,283H-45.74M-23,263.82l41-.15-31.63-54.48L-51,273.78l5.27,9.22,32.08-54.33,20.35,35m28,9.63L-2.68,209.19h-11"/><path class="cls-5" d="M19.55,209.19H94.83l5.13,9.67H36.25l20.8,35.44M72,228.48l-20.36,35L19.55,209.19l-5.27,9.23L51.63,283l31.63-54.48-41-.15M51.63,283h11L100,218.86"/><path class="cls-5" d="M122.34,237.89l-20.8,35.45h63.71L160.13,283H84.85m22.7-19.18,41-.15-31.64-54.48L79.57,273.78,84.85,283l32.07-54.33,20.36,35m28,9.63-37.34-64.15h-11"/><path class="cls-5" d="M150.14,209.19h75.28l5.12,9.67h-63.7l20.79,35.44m14.94-25.82-20.36,35-32.07-54.33-5.27,9.23L182.21,283l31.64-54.48-41-.15M182.21,283h11l37.34-64.14"/><path class="cls-5" d="M252.92,237.89l-20.79,35.45h63.71L290.71,283H215.43m22.7-19.18,41-.15-31.63-54.48-37.35,64.59,5.27,9.22,32.08-54.33,20.35,35m28,9.63-37.35-64.15h-11"/><path class="cls-5" d="M280.72,209.19H356l5.13,9.67H297.42l20.8,35.44m14.94-25.82-20.36,35-32.08-54.33-5.27,9.23L312.8,283l31.63-54.48-41-.15M312.8,283h11l37.35-64.14"/><path class="cls-5" d="M-56.8,125.21H18.48l5.13,9.66H-40.1l20.8,35.44M-4.36,144.5l-20.36,35L-56.8,125.21l-5.27,9.22L-24.72,199,6.91,144.54l-41-.15M-24.72,199h11l37.35-64.15"/><path class="cls-5" d="M46,153.91,25.22,189.35h63.7L83.8,199H8.52m22.7-19.18,41-.15L40.59,125.21,3.25,189.79,8.52,199l32.07-54.33,20.36,35m28,9.62L51.58,125.21h-11"/><path class="cls-5" d="M73.83,125.21h75.28l5.13,9.66H90.53l20.8,35.44m14.93-25.81-20.35,35L73.83,125.21l-5.27,9.22L105.91,199l31.63-54.48-41-.15M105.91,199h11l37.35-64.15"/><path class="cls-5" d="M176.64,153.91l-20.8,35.44h63.71L214.43,199H139.15m22.7-19.18,41-.15-31.64-54.48-37.34,64.58,5.27,9.23,32.07-54.33,20.36,35m28,9.62-37.34-64.14h-11"/><path class="cls-5" d="M204.46,125.21h75.28l5.13,9.66H221.16L242,170.31m14.94-25.81-20.35,35-32.08-54.33-5.27,9.22L236.54,199l31.63-54.48-41-.15M236.54,199h11l37.35-64.15"/><path class="cls-5" d="M307.27,153.91l-20.8,35.44h63.71L345.05,199H269.78m22.7-19.18,41-.15-31.63-54.48L264.5,189.79l5.28,9.23,32.07-54.33,20.36,35m28,9.62-37.35-64.14h-11"/><path class="cls-5" d="M-57,41.22H18.3l5.12,9.67H-40.29l20.8,35.44M-4.55,60.52l-20.36,35L-57,41.22l-5.28,9.23L-24.91,115,6.73,60.56l-41-.15M-24.91,115h11L23.42,50.89"/><path class="cls-5" d="M45.83,69.93,25,105.37H88.74L83.62,115H8.34M31,95.85l41-.14L40.41,41.22,3.07,105.81,8.34,115,40.41,60.7,60.77,95.75m28,9.62L51.4,41.22h-11"/><path class="cls-5" d="M73.66,41.22h75.28l5.12,9.67H90.35l20.8,35.44m14.94-25.81-20.36,35L73.66,41.22l-5.27,9.23L105.73,115l31.64-54.48-41-.15M105.73,115h11l37.34-64.15"/><path class="cls-5" d="M176.47,69.93l-20.79,35.44h63.7L214.26,115H139m22.7-19.19,41-.14L171.05,41.22l-37.34,64.59L139,115,171.05,60.7l20.36,35.05m28,9.62L182,41.22h-11"/><path class="cls-5" d="M204.3,41.22h75.28l5.12,9.67H221l20.8,35.44m14.94-25.81-20.36,35L204.3,41.22,199,50.45,236.37,115,268,60.56l-41-.15M236.37,115h11L284.7,50.89"/><path class="cls-5" d="M307.11,69.93l-20.79,35.44H350L344.9,115H269.62m22.7-19.19,41-.14L301.69,41.22l-37.34,64.59,5.27,9.23L301.69,60.7l20.36,35.05m28,9.62L312.68,41.22h-11"/><path class="cls-5" d="M-8.7-14-29.5,21.39H34.21l-5.12,9.67H-46.19m22.7-19.19,41-.15L-14.12-42.76-51.47,21.83l5.28,9.23,32.07-54.34,20.36,35m28,9.63L-3.13-42.76h-11"/><path class="cls-5" d="M19.14-42.76H94.42l5.13,9.67H35.84L56.64,2.35M71.58-23.47,51.22,11.58,19.14-42.76l-5.27,9.23L51.22,31.06,82.85-23.43l-41-.14m9.37,54.63h11L99.55-33.09"/><path class="cls-5" d="M122-14l-20.8,35.44h63.71l-5.13,9.67H84.48m22.7-19.19,41-.15L116.56-42.76,79.21,21.83l5.27,9.23,32.08-54.34,20.35,35m28,9.63L127.54-42.76h-11"/><path class="cls-5" d="M149.82-42.76H225.1l5.13,9.67H166.52L187.31,2.35m14.94-25.82L181.9,11.58,149.82-42.76l-5.27,9.23L181.9,31.06l31.63-54.49-41-.14m9.38,54.63h11l37.35-64.15"/><path class="cls-5" d="M252.65-14,231.86,21.39h63.7l-5.12,9.67H215.16m22.7-19.19,41-.15L247.23-42.76,209.89,21.83l5.27,9.23,32.07-54.34,20.36,35m28,9.63L258.22-42.76h-11"/><path class="cls-5" d="M280.5-42.76h75.28l5.12,9.67H297.19L318,2.35m14.94-25.82L312.57,11.58,280.5-42.76l-5.27,9.23,37.34,64.59,31.64-54.49-41-.14m9.37,54.63h11L360.9-33.09"/></g></g></g><rect class="cls-1" width="300" height="250"/></svg>