<svg id="copy-rotate-5" xmlns="http://www.w3.org/2000/svg" viewBox="0 0 300 250"><defs><style>.cls-1{fill:#38a7de;}</style></defs><title>copy-rotate-5</title><path class="cls-1" d="M55.59,176.89a4.94,4.94,0,0,1,2.78.68,3.67,3.67,0,0,1,1.57,3.08,3.55,3.55,0,0,1-1.23,2.77,4.56,4.56,0,0,1-3.1,1h-.87v5.15H52.8V176.89Zm-.85,5.73h.87c1.67,0,2.47-.81,2.47-2,0-.7-.28-2-2.49-2h-.85Z"/><path class="cls-1" d="M64.18,176.89a5.71,5.71,0,0,1,3.35.74,3.55,3.55,0,0,1,1.5,3,3.47,3.47,0,0,1-2.82,3.53l4,5.42H67.83l-3.63-5.19h-.34v5.19H61.92V176.89Zm-.32,5.81h.61c.53,0,2.69-.06,2.69-2.07,0-1.79-1.69-2-2.64-2h-.66Z"/><path class="cls-1" d="M84.64,183.23a6.59,6.59,0,1,1-6.59-6.57A6.43,6.43,0,0,1,84.64,183.23Zm-1.93,0A4.66,4.66,0,1,0,78.05,188,4.54,4.54,0,0,0,82.71,183.23Z"/><path class="cls-1" d="M92.55,179.7a2.12,2.12,0,0,0-.57-.8,2,2,0,0,0-1.37-.46A1.58,1.58,0,0,0,88.82,180c0,.38.14,1,1.37,1.54l1.27.52c2.34.95,3,2.27,3,3.72a3.9,3.9,0,0,1-4.09,4.06,3.72,3.72,0,0,1-3-1.27,4.07,4.07,0,0,1-1.06-2.47l1.92-.42a2.71,2.71,0,0,0,.53,1.62,2,2,0,0,0,1.65.76,2,2,0,0,0,2.09-2.13c0-1.29-1-1.82-1.82-2.16l-1.22-.52A3.56,3.56,0,0,1,86.89,180a3.42,3.42,0,0,1,3.7-3.34,3.76,3.76,0,0,1,2.55.85,4.43,4.43,0,0,1,1,1.28Z"/><path class="cls-1" d="M99.67,176.89a5,5,0,0,1,2.78.68,3.67,3.67,0,0,1,1.57,3.08,3.55,3.55,0,0,1-1.23,2.77,4.56,4.56,0,0,1-3.1,1h-.87v5.15H96.88V176.89Zm-.85,5.73h.87c1.67,0,2.47-.81,2.47-2,0-.7-.28-2-2.49-2h-.85Z"/><path class="cls-1" d="M113,178.71h-5v3.21h4.9v1.82h-4.9v4h5v1.83h-7V176.89h7Z"/><path class="cls-1" d="M124.88,179.85a4.94,4.94,0,0,0-3.43-1.41,4.53,4.53,0,0,0-4.62,4.83,4.58,4.58,0,0,0,4.64,4.75,5,5,0,0,0,3.41-1.46v2.29a6.9,6.9,0,0,1-3.47,1,6.4,6.4,0,0,1-4.49-1.74,6.22,6.22,0,0,1-2-4.79,6.65,6.65,0,0,1,2-5,6.32,6.32,0,0,1,4.58-1.65,6,6,0,0,1,3.38.91Z"/><path class="cls-1" d="M130.79,178.71v10.85h-1.93V178.71H126v-1.82h7.75v1.82Z"/><path class="cls-1" d="M137.35,176.89v7.63a4.45,4.45,0,0,0,.4,2.19,2.77,2.77,0,0,0,4.71,0,4.45,4.45,0,0,0,.4-2.19v-7.63h1.94V185a4.54,4.54,0,0,1-4.7,4.76,4.62,4.62,0,0,1-3.51-1.48,4.68,4.68,0,0,1-1.18-3.28v-8.15Z"/><path class="cls-1" d="M153.31,179.7a2,2,0,0,0-.57-.8,2,2,0,0,0-1.37-.46,1.57,1.57,0,0,0-1.78,1.52c0,.38.13,1,1.36,1.54l1.28.52c2.33.95,3,2.27,3,3.72a3.9,3.9,0,0,1-4.08,4.06,3.72,3.72,0,0,1-3-1.27,4.07,4.07,0,0,1-1.06-2.47l1.92-.42a2.71,2.71,0,0,0,.53,1.62,2,2,0,0,0,1.65.76,2,2,0,0,0,2.09-2.13c0-1.29-1-1.82-1.82-2.16l-1.22-.52a3.57,3.57,0,0,1-2.58-3.21,3.42,3.42,0,0,1,3.7-3.34,3.76,3.76,0,0,1,2.55.85,4.43,4.43,0,0,1,1,1.28Z"/><path class="cls-1" d="M157.19,180.34c0-.43,0-.59,0-.64a3,3,0,0,1,.85-2.24,3.11,3.11,0,0,1,2.23-.8,3.22,3.22,0,0,1,2.29.83,2.81,2.81,0,0,1,.82,2.13,2.7,2.7,0,0,1-1.12,2.34,6.36,6.36,0,0,1-1.33.66l-.57.23a2.41,2.41,0,0,0-.76.42,1,1,0,0,0-.28.68,1,1,0,0,0,.32.74.8.8,0,0,0,.57.19.91.91,0,0,0,.72-.28,1.48,1.48,0,0,0,.3-1h1.87a3.2,3.2,0,0,1-.84,2.21,3,3,0,0,1-4.07,0,2.77,2.77,0,0,1-.77-2,2.35,2.35,0,0,1,.6-1.63,4.4,4.4,0,0,1,1.66-1,4.32,4.32,0,0,0,1.38-.67,1.17,1.17,0,0,0,.42-.95,1.24,1.24,0,0,0-.32-.89,1.28,1.28,0,0,0-.88-.32,1.21,1.21,0,0,0-.87.34,1.46,1.46,0,0,0-.32,1,4.05,4.05,0,0,0,.07.62Zm3.07,7.19a1.14,1.14,0,1,1-1.14,1.13A1.14,1.14,0,0,1,160.26,187.53Z"/></svg>