<svg id="copy-rotate-8" xmlns="http://www.w3.org/2000/svg" viewBox="0 0 300 250"><defs><style>.cls-1{fill:#38a7de;}</style></defs><title>copy-rotate-8</title><path class="cls-1" d="M55.06,176.89a5.71,5.71,0,0,1,3.35.74,3.55,3.55,0,0,1,1.5,3,3.47,3.47,0,0,1-2.82,3.53l4,5.42H58.71l-3.63-5.19h-.34v5.19H52.8V176.89Zm-.32,5.81h.61c.53,0,2.69-.06,2.69-2.07,0-1.79-1.69-2-2.64-2h-.66Z"/><path class="cls-1" d="M69.94,178.71H64.88v3.21h4.91v1.82H64.88v4h5.06v1.83H63V176.89h7Z"/><path class="cls-1" d="M75.24,176.89a4.91,4.91,0,0,1,2.77.68,3.65,3.65,0,0,1,1.58,3.08,3.53,3.53,0,0,1-1.24,2.77,4.53,4.53,0,0,1-3.09,1h-.88v5.15H72.45V176.89Zm-.86,5.73h.88c1.67,0,2.47-.81,2.47-2,0-.7-.29-2-2.49-2h-.86Z"/><path class="cls-1" d="M83.5,176.89v7.63a4.45,4.45,0,0,0,.4,2.19,2.77,2.77,0,0,0,4.71,0,4.45,4.45,0,0,0,.4-2.19v-7.63H91V185a4.68,4.68,0,0,1-1.18,3.28,4.91,4.91,0,0,1-7,0A4.71,4.71,0,0,1,81.57,185v-8.15Z"/><path class="cls-1" d="M97.51,178.71v10.85H95.57V178.71H92.66v-1.82h7.75v1.82Z"/><path class="cls-1" d="M108.81,186.5H103.4L102,189.56H99.92l6.31-13.41,6,13.41h-2.09Zm-.78-1.82-1.88-4.3-2,4.3Z"/><path class="cls-1" d="M116.58,178.71v10.85h-1.93V178.71h-2.91v-1.82h7.75v1.82Z"/><path class="cls-1" d="M123.14,176.89v12.67H121.2V176.89Z"/><path class="cls-1" d="M138.75,183.23a6.59,6.59,0,1,1-6.59-6.57A6.43,6.43,0,0,1,138.75,183.23Zm-1.93,0a4.66,4.66,0,1,0-4.66,4.79A4.54,4.54,0,0,0,136.82,183.23Z"/><path class="cls-1" d="M141.19,189.56V176l9.19,9.63v-8.77h1.94v13.45l-9.19-9.64v8.86Z"/><path class="cls-1" d="M154.91,180.34c0-.43,0-.59,0-.64a3,3,0,0,1,.85-2.24,3.11,3.11,0,0,1,2.23-.8,3.22,3.22,0,0,1,2.29.83,2.81,2.81,0,0,1,.82,2.13,2.7,2.7,0,0,1-1.12,2.34,6.36,6.36,0,0,1-1.33.66l-.57.23a2.31,2.31,0,0,0-.76.42,1,1,0,0,0-.28.68,1,1,0,0,0,.32.74.8.8,0,0,0,.57.19.91.91,0,0,0,.72-.28,1.48,1.48,0,0,0,.3-1h1.87a3.2,3.2,0,0,1-.84,2.21,2.93,2.93,0,0,1-2.07.79,2.9,2.9,0,0,1-2-.77,2.77,2.77,0,0,1-.77-2,2.35,2.35,0,0,1,.6-1.63,4.4,4.4,0,0,1,1.66-1,4.32,4.32,0,0,0,1.38-.67,1.17,1.17,0,0,0,.42-.95,1.24,1.24,0,0,0-.32-.89,1.28,1.28,0,0,0-.88-.32,1.21,1.21,0,0,0-.87.34,1.46,1.46,0,0,0-.32,1,4.05,4.05,0,0,0,.07.62Zm3.07,7.19a1.14,1.14,0,1,1-1.14,1.13A1.14,1.14,0,0,1,158,187.53Z"/></svg>