<svg id="copy-rotate-2" xmlns="http://www.w3.org/2000/svg" viewBox="0 0 300 250"><defs><style>.cls-1{fill:#38a7de;}</style></defs><title>copy-rotate-2</title><path class="cls-1" d="M60.25,186.5H54.83l-1.38,3.06H51.36l6.3-13.41,6,13.41H61.58Zm-.78-1.82-1.88-4.3-2,4.3Z"/><path class="cls-1" d="M67.92,176.89a7.43,7.43,0,0,1,4.72,1.23,6.29,6.29,0,0,1,2.43,5.11,6.05,6.05,0,0,1-2.55,5.11,7.24,7.24,0,0,1-4.63,1.22H65.26V176.89Zm-.72,10.84H68a5.45,5.45,0,0,0,3.36-.89,4.47,4.47,0,0,0,1.73-3.61,4.54,4.54,0,0,0-1.71-3.65,5.72,5.72,0,0,0-3.38-.87H67.2Z"/><path class="cls-1" d="M78.15,176.89l3.53,8.83,3.53-8.83H87.3l-5.62,13.48-5.62-13.48Z"/><path class="cls-1" d="M95.89,178.71h-5v3.21h4.9v1.82h-4.9v4h5v1.83h-7V176.89h7Z"/><path class="cls-1" d="M100.66,176.89a5.65,5.65,0,0,1,3.34.74,3.54,3.54,0,0,1,1.51,3,3.48,3.48,0,0,1-2.82,3.53l4,5.42h-2.34l-3.63-5.19h-.34v5.19H98.4V176.89Zm-.32,5.81H101c.53,0,2.69-.06,2.69-2.07,0-1.79-1.69-2-2.64-2h-.66Z"/><path class="cls-1" d="M112.06,178.71v10.85h-1.94V178.71h-2.9v-1.82H115v1.82Z"/><path class="cls-1" d="M118.62,176.89v12.67h-1.94V176.89Z"/><path class="cls-1" d="M127.13,179.7a2.12,2.12,0,0,0-.57-.8,2,2,0,0,0-1.37-.46A1.58,1.58,0,0,0,123.4,180c0,.38.14,1,1.37,1.54L126,182c2.34.95,3,2.27,3,3.72a3.9,3.9,0,0,1-4.09,4.06,3.72,3.72,0,0,1-3-1.27,4.07,4.07,0,0,1-1.06-2.47l1.91-.42a2.71,2.71,0,0,0,.54,1.62A2,2,0,0,0,125,188a2,2,0,0,0,2.09-2.13c0-1.29-1-1.82-1.83-2.16l-1.21-.52a3.56,3.56,0,0,1-2.58-3.21,3.41,3.41,0,0,1,3.7-3.34,3.76,3.76,0,0,1,2.55.85,4.25,4.25,0,0,1,1,1.28Z"/><path class="cls-1" d="M133.4,176.89v12.67h-1.94V176.89Z"/><path class="cls-1" d="M136.44,189.56V176l9.19,9.63v-8.77h1.94v13.45l-9.2-9.64v8.86Z"/><path class="cls-1" d="M157.17,183h5.22v.09a6.94,6.94,0,0,1-1.88,5.13,5.93,5.93,0,0,1-4.31,1.61,5.55,5.55,0,0,1-4.32-1.72,6.83,6.83,0,0,1-1.88-4.79,6.41,6.41,0,0,1,6.61-6.63,6.89,6.89,0,0,1,3.31.8,5.71,5.71,0,0,1,2.05,1.9l-1.54,1.08a5.3,5.3,0,0,0-1.56-1.45,4.33,4.33,0,0,0-2.24-.55,4.6,4.6,0,0,0-3.34,1.31,5.27,5.27,0,0,0,0,7,4.13,4.13,0,0,0,3.17,1.27,3.77,3.77,0,0,0,2.83-1.12,3.42,3.42,0,0,0,1.07-2.15h-3.15Z"/><path class="cls-1" d="M164.37,180.34c0-.43,0-.59,0-.64a3,3,0,0,1,.85-2.24,3.11,3.11,0,0,1,2.23-.8,3.25,3.25,0,0,1,2.3.83,2.84,2.84,0,0,1,.81,2.13A2.7,2.7,0,0,1,169.4,182a6.36,6.36,0,0,1-1.33.66l-.57.23a2.41,2.41,0,0,0-.76.42,1,1,0,0,0-.28.68,1,1,0,0,0,.32.74.8.8,0,0,0,.57.19.91.91,0,0,0,.72-.28,1.49,1.49,0,0,0,.31-1h1.86a3.2,3.2,0,0,1-.84,2.21,3,3,0,0,1-4.07,0,2.81,2.81,0,0,1-.77-2,2.35,2.35,0,0,1,.6-1.63,4.47,4.47,0,0,1,1.66-1,4.32,4.32,0,0,0,1.38-.67,1.17,1.17,0,0,0,.42-.95,1.24,1.24,0,0,0-.32-.89,1.28,1.28,0,0,0-.88-.32,1.21,1.21,0,0,0-.87.34,1.46,1.46,0,0,0-.32,1,4.05,4.05,0,0,0,.07.62Zm3.07,7.19a1.14,1.14,0,1,1-1.14,1.13A1.14,1.14,0,0,1,167.44,187.53Z"/></svg>