<svg id="copy-rotate-1" xmlns="http://www.w3.org/2000/svg" viewBox="0 0 300 250"><defs><style>.cls-1{fill:#38a7de;}</style></defs><title>copy-rotate-1</title><path class="cls-1" d="M54.72,176.89c1.63,0,2.66.21,3.49,1a3.25,3.25,0,0,1,1,2.51,2.69,2.69,0,0,1-.38,1.5,2.08,2.08,0,0,1-1,.88,3.38,3.38,0,0,1,1.64.91,3.29,3.29,0,0,1,.83,2.37,3.11,3.11,0,0,1-.83,2.28A4.91,4.91,0,0,1,56,189.56H52.8V176.89Zm0,5.45h.59a2.2,2.2,0,0,0,1.57-.5,1.89,1.89,0,0,0,.5-1.44,1.55,1.55,0,0,0-.46-1.21,2.07,2.07,0,0,0-1.54-.48h-.66Zm0,5.39h1.18a3.3,3.3,0,0,0,1.91-.49,1.82,1.82,0,0,0,.63-1.41A1.93,1.93,0,0,0,58,184.5a2.8,2.8,0,0,0-2-.57H54.74Z"/><path class="cls-1" d="M65.06,176.89a5.69,5.69,0,0,1,3.34.74,3.52,3.52,0,0,1,1.5,3,3.47,3.47,0,0,1-2.81,3.53l4,5.42H68.7l-3.62-5.19h-.35v5.19H62.79V176.89Zm-.33,5.81h.61c.53,0,2.7-.06,2.7-2.07,0-1.79-1.69-2-2.64-2h-.67Z"/><path class="cls-1" d="M80.39,186.5H75l-1.38,3.06H71.5l6.3-13.41,6,13.41H81.72Zm-.78-1.82-1.88-4.3-2,4.3Z"/><path class="cls-1" d="M85.4,189.56V176l9.2,9.63v-8.77h1.94v13.45l-9.2-9.64v8.86Z"/><path class="cls-1" d="M102.24,176.89a7.42,7.42,0,0,1,4.71,1.23,6.27,6.27,0,0,1,2.43,5.11,6,6,0,0,1-2.55,5.11,7.22,7.22,0,0,1-4.63,1.22H99.58V176.89Zm-.72,10.84h.83a5.45,5.45,0,0,0,3.36-.89,4.44,4.44,0,0,0,1.73-3.61,4.51,4.51,0,0,0-1.71-3.65,5.72,5.72,0,0,0-3.38-.87h-.83Z"/><path class="cls-1" d="M111.36,180.34c0-.43,0-.59,0-.64a3,3,0,0,1,.86-2.24,3.08,3.08,0,0,1,2.22-.8,3.25,3.25,0,0,1,2.3.83,2.84,2.84,0,0,1,.81,2.13,2.7,2.7,0,0,1-1.12,2.34,5.87,5.87,0,0,1-1.33.66l-.57.23a2.41,2.41,0,0,0-.76.42,1,1,0,0,0-.28.68,1,1,0,0,0,.32.74.84.84,0,0,0,.57.19.9.9,0,0,0,.72-.28,1.49,1.49,0,0,0,.31-1h1.86a3.2,3.2,0,0,1-.84,2.21,3,3,0,0,1-4.06,0,2.77,2.77,0,0,1-.78-2,2.36,2.36,0,0,1,.61-1.63,4.36,4.36,0,0,1,1.65-1,4.48,4.48,0,0,0,1.39-.67,1.35,1.35,0,0,0,.09-1.84,1.27,1.27,0,0,0-.87-.32,1.23,1.23,0,0,0-.88.34,1.51,1.51,0,0,0-.32,1,3.09,3.09,0,0,0,.08.62Zm3.08,7.19a1.14,1.14,0,1,1-1.14,1.13A1.14,1.14,0,0,1,114.44,187.53Z"/></svg>