<svg id="copy-rotate-7" xmlns="http://www.w3.org/2000/svg" viewBox="0 0 300 250"><defs><style>.cls-1{fill:#38a7de;}</style></defs><title>copy-rotate-7</title><path class="cls-1" d="M54.74,176.89v10.84h3.72v1.83H52.8V176.89Z"/><path class="cls-1" d="M72.29,183.23a6.59,6.59,0,1,1-6.59-6.57A6.43,6.43,0,0,1,72.29,183.23Zm-1.93,0A4.66,4.66,0,1,0,65.7,188,4.54,4.54,0,0,0,70.36,183.23Z"/><path class="cls-1" d="M84.11,179.85a5,5,0,0,0-3.44-1.41,4.79,4.79,0,0,0,0,9.58,5,5,0,0,0,3.42-1.46v2.29a6.9,6.9,0,0,1-3.48,1,6.37,6.37,0,0,1-4.48-1.74,6.22,6.22,0,0,1-2-4.79,6.65,6.65,0,0,1,2-5,6.29,6.29,0,0,1,4.58-1.65,6,6,0,0,1,3.38.91Z"/><path class="cls-1" d="M93.76,186.5H88.35L87,189.56H84.87l6.31-13.41,6,13.41H95.09ZM93,184.68l-1.89-4.3-1.95,4.3Z"/><path class="cls-1" d="M101.54,178.71v10.85H99.6V178.71H96.69v-1.82h7.75v1.82Z"/><path class="cls-1" d="M108.09,176.89v12.67h-1.94V176.89Z"/><path class="cls-1" d="M123.71,183.23a6.6,6.6,0,1,1-6.59-6.57A6.43,6.43,0,0,1,123.71,183.23Zm-1.94,0a4.66,4.66,0,1,0-4.65,4.79A4.54,4.54,0,0,0,121.77,183.23Z"/><path class="cls-1" d="M126.14,189.56V176l9.2,9.63v-8.77h1.93v13.45l-9.19-9.64v8.86Z"/><path class="cls-1" d="M139.86,180.34c0-.43,0-.59,0-.64a3,3,0,0,1,.86-2.24,3.08,3.08,0,0,1,2.22-.8,3.25,3.25,0,0,1,2.3.83,2.84,2.84,0,0,1,.81,2.13,2.7,2.7,0,0,1-1.12,2.34,5.87,5.87,0,0,1-1.33.66l-.57.23a2.41,2.41,0,0,0-.76.42,1,1,0,0,0-.28.68,1,1,0,0,0,.32.74.84.84,0,0,0,.57.19.9.9,0,0,0,.72-.28,1.49,1.49,0,0,0,.31-1h1.86a3.2,3.2,0,0,1-.84,2.21,3,3,0,0,1-4.06,0,2.77,2.77,0,0,1-.78-2,2.36,2.36,0,0,1,.61-1.63,4.36,4.36,0,0,1,1.65-1,4.48,4.48,0,0,0,1.39-.67,1.35,1.35,0,0,0,.09-1.84,1.27,1.27,0,0,0-.87-.32,1.23,1.23,0,0,0-.88.34,1.51,1.51,0,0,0-.32,1,3.09,3.09,0,0,0,.08.62Zm3.08,7.19a1.14,1.14,0,1,1-1.14,1.13A1.14,1.14,0,0,1,142.94,187.53Z"/></svg>