<svg id="copy-rotate-6" xmlns="http://www.w3.org/2000/svg" viewBox="0 0 300 250"><defs><style>.cls-1{fill:#38a7de;}</style></defs><title>copy-rotate-6</title><path class="cls-1" d="M55.59,176.89a4.94,4.94,0,0,1,2.78.68,3.67,3.67,0,0,1,1.57,3.08,3.55,3.55,0,0,1-1.23,2.77,4.56,4.56,0,0,1-3.1,1h-.87v5.15H52.8V176.89Zm-.85,5.73h.87c1.67,0,2.47-.81,2.47-2,0-.7-.28-2-2.49-2h-.85Z"/><path class="cls-1" d="M64.18,176.89a5.71,5.71,0,0,1,3.35.74,3.55,3.55,0,0,1,1.5,3,3.47,3.47,0,0,1-2.82,3.53l4,5.42H67.83l-3.63-5.19h-.34v5.19H61.92V176.89Zm-.32,5.81h.61c.53,0,2.69-.06,2.69-2.07,0-1.79-1.69-2-2.64-2h-.66Z"/><path class="cls-1" d="M84.64,183.23a6.59,6.59,0,1,1-6.59-6.57A6.43,6.43,0,0,1,84.64,183.23Zm-1.93,0A4.66,4.66,0,1,0,78.05,188,4.54,4.54,0,0,0,82.71,183.23Z"/><path class="cls-1" d="M89.74,176.89a7.42,7.42,0,0,1,4.71,1.23,6.27,6.27,0,0,1,2.43,5.11,6.05,6.05,0,0,1-2.55,5.11,7.24,7.24,0,0,1-4.63,1.22H87.08V176.89ZM89,187.73h.84a5.45,5.45,0,0,0,3.36-.89,4.44,4.44,0,0,0,1.73-3.61,4.54,4.54,0,0,0-1.71-3.65,5.72,5.72,0,0,0-3.38-.87H89Z"/><path class="cls-1" d="M101.25,176.89v7.63a4.45,4.45,0,0,0,.4,2.19,2.77,2.77,0,0,0,4.71,0,4.45,4.45,0,0,0,.4-2.19v-7.63h1.94V185a4.7,4.7,0,1,1-9.39,0v-8.15Z"/><path class="cls-1" d="M121.12,179.85a5,5,0,0,0-3.44-1.41,4.53,4.53,0,0,0-4.61,4.83A4.57,4.57,0,0,0,117.7,188a5,5,0,0,0,3.42-1.46v2.29a6.9,6.9,0,0,1-3.47,1,6.38,6.38,0,0,1-4.49-1.74,6.22,6.22,0,0,1-2-4.79,6.65,6.65,0,0,1,2-5,6.29,6.29,0,0,1,4.58-1.65,6,6,0,0,1,3.38.91Z"/><path class="cls-1" d="M127,178.71v10.85H125.1V178.71h-2.91v-1.82h7.75v1.82Z"/><path class="cls-1" d="M137.12,179.7a1.92,1.92,0,0,0-.57-.8,2,2,0,0,0-1.37-.46A1.57,1.57,0,0,0,133.4,180c0,.38.13,1,1.37,1.54L136,182c2.34.95,3,2.27,3,3.72a3.9,3.9,0,0,1-4.08,4.06,3.72,3.72,0,0,1-3-1.27,4.13,4.13,0,0,1-1.06-2.47l1.92-.42a2.77,2.77,0,0,0,.53,1.62A2,2,0,0,0,135,188a2,2,0,0,0,2.09-2.13c0-1.29-1-1.82-1.82-2.16l-1.22-.52a3.57,3.57,0,0,1-2.58-3.21,3.42,3.42,0,0,1,3.71-3.34,3.75,3.75,0,0,1,2.54.85,4.43,4.43,0,0,1,1,1.28Z"/><path class="cls-1" d="M141,180.34c0-.43,0-.59,0-.64a3,3,0,0,1,.86-2.24,3.08,3.08,0,0,1,2.22-.8,3.25,3.25,0,0,1,2.3.83,2.84,2.84,0,0,1,.81,2.13A2.7,2.7,0,0,1,146,182a5.87,5.87,0,0,1-1.33.66l-.57.23a2.41,2.41,0,0,0-.76.42,1,1,0,0,0-.28.68,1,1,0,0,0,.32.74.84.84,0,0,0,.57.19.9.9,0,0,0,.72-.28,1.49,1.49,0,0,0,.31-1h1.86a3.2,3.2,0,0,1-.84,2.21,3,3,0,0,1-4.06,0,2.77,2.77,0,0,1-.78-2,2.36,2.36,0,0,1,.61-1.63,4.36,4.36,0,0,1,1.65-1,4.48,4.48,0,0,0,1.39-.67,1.35,1.35,0,0,0,.09-1.84,1.27,1.27,0,0,0-.87-.32,1.21,1.21,0,0,0-.88.34,1.51,1.51,0,0,0-.32,1,3.09,3.09,0,0,0,.08.62Zm3.08,7.19a1.14,1.14,0,1,1-1.14,1.13A1.14,1.14,0,0,1,144.08,187.53Z"/></svg>