<svg id="copy-rotate-3" xmlns="http://www.w3.org/2000/svg" viewBox="0 0 300 250"><defs><style>.cls-1{fill:#38a7de;}</style></defs><title>copy-rotate-3</title><path class="cls-1" d="M62.19,179.85a5,5,0,0,0-3.44-1.41,4.53,4.53,0,0,0-4.62,4.83A4.58,4.58,0,0,0,58.77,188a5.06,5.06,0,0,0,3.42-1.46v2.29a7,7,0,0,1-3.48,1,6.35,6.35,0,0,1-4.48-1.74,6.2,6.2,0,0,1-2-4.79,6.61,6.61,0,0,1,2-5,6.28,6.28,0,0,1,4.57-1.65,6.08,6.08,0,0,1,3.39.91Z"/><path class="cls-1" d="M76.76,183.23a6.59,6.59,0,1,1-6.59-6.57A6.43,6.43,0,0,1,76.76,183.23Zm-1.94,0A4.66,4.66,0,1,0,70.17,188,4.54,4.54,0,0,0,74.82,183.23Z"/><path class="cls-1" d="M79.19,189.56V176l9.2,9.63v-8.77h1.94v13.45l-9.2-9.64v8.86Z"/><path class="cls-1" d="M96.88,178.71v10.85H94.94V178.71H92v-1.82h7.75v1.82Z"/><path class="cls-1" d="M108.49,178.71h-5.06v3.21h4.91v1.82h-4.91v4h5.06v1.83h-7V176.89h7Z"/><path class="cls-1" d="M111,189.56V176l9.19,9.63v-8.77h1.94v13.45l-9.2-9.64v8.86Z"/><path class="cls-1" d="M128.69,178.71v10.85h-1.94V178.71h-2.91v-1.82h7.75v1.82Z"/><path class="cls-1" d="M132.85,180.34c0-.43,0-.59,0-.64a3,3,0,0,1,.86-2.24,3.08,3.08,0,0,1,2.22-.8,3.25,3.25,0,0,1,2.3.83,2.84,2.84,0,0,1,.81,2.13,2.7,2.7,0,0,1-1.12,2.34,6.11,6.11,0,0,1-1.33.66l-.57.23a2.41,2.41,0,0,0-.76.42,1,1,0,0,0-.28.68,1,1,0,0,0,.32.74.84.84,0,0,0,.57.19.9.9,0,0,0,.72-.28,1.49,1.49,0,0,0,.31-1h1.86a3.2,3.2,0,0,1-.84,2.21,3,3,0,0,1-4.06,0,2.77,2.77,0,0,1-.78-2,2.36,2.36,0,0,1,.61-1.63,4.36,4.36,0,0,1,1.65-1,4.48,4.48,0,0,0,1.39-.67,1.35,1.35,0,0,0,.09-1.84,1.27,1.27,0,0,0-.87-.32,1.21,1.21,0,0,0-.88.34,1.46,1.46,0,0,0-.32,1,3.09,3.09,0,0,0,.08.62Zm3.08,7.19a1.14,1.14,0,1,1-1.14,1.13A1.14,1.14,0,0,1,135.93,187.53Z"/></svg>