<svg id="copy-rotate-10" xmlns="http://www.w3.org/2000/svg" viewBox="0 0 300 250"><defs><style>.cls-1{fill:#38a7de;}</style></defs><title>copy-rotate-10</title><path class="cls-1" d="M58.27,179.7a1.92,1.92,0,0,0-.57-.8,2,2,0,0,0-1.37-.46A1.57,1.57,0,0,0,54.55,180c0,.38.13,1,1.37,1.54l1.27.52c2.34.95,3,2.27,3,3.72a3.9,3.9,0,0,1-4.08,4.06,3.74,3.74,0,0,1-3-1.27A4.13,4.13,0,0,1,52,186.06l1.92-.42a2.77,2.77,0,0,0,.53,1.62,2,2,0,0,0,1.65.76,2,2,0,0,0,2.09-2.13c0-1.29-1-1.82-1.82-2.16l-1.22-.52A3.57,3.57,0,0,1,52.61,180a3.42,3.42,0,0,1,3.71-3.34,3.75,3.75,0,0,1,2.54.85,4.43,4.43,0,0,1,1,1.28Z"/><path class="cls-1" d="M64.54,176.89v7.63a4.45,4.45,0,0,0,.4,2.19,2.77,2.77,0,0,0,4.71,0,4.45,4.45,0,0,0,.4-2.19v-7.63H72V185a4.68,4.68,0,0,1-1.18,3.28,4.91,4.91,0,0,1-7,0A4.68,4.68,0,0,1,62.6,185v-8.15Z"/><path class="cls-1" d="M77.82,176.89a5,5,0,0,1,2.78.68,3.67,3.67,0,0,1,1.57,3.08,3.55,3.55,0,0,1-1.23,2.77,4.56,4.56,0,0,1-3.1,1H77v5.15H75V176.89ZM77,182.62h.87c1.67,0,2.47-.81,2.47-2,0-.7-.28-2-2.49-2H77Z"/><path class="cls-1" d="M86.94,176.89a5,5,0,0,1,2.78.68,3.67,3.67,0,0,1,1.57,3.08,3.55,3.55,0,0,1-1.23,2.77,4.56,4.56,0,0,1-3.1,1h-.87v5.15H84.15V176.89Zm-.85,5.73H87c1.67,0,2.47-.81,2.47-2,0-.7-.28-2-2.49-2h-.85Z"/><path class="cls-1" d="M105.85,183.23a6.6,6.6,0,1,1-6.6-6.57A6.43,6.43,0,0,1,105.85,183.23Zm-1.94,0A4.66,4.66,0,1,0,99.25,188,4.54,4.54,0,0,0,103.91,183.23Z"/><path class="cls-1" d="M110.54,176.89a5.65,5.65,0,0,1,3.34.74,3.54,3.54,0,0,1,1.51,3,3.48,3.48,0,0,1-2.82,3.53l4,5.42h-2.34l-3.63-5.19h-.34v5.19h-1.94V176.89Zm-.32,5.81h.61c.53,0,2.69-.06,2.69-2.07,0-1.79-1.69-2-2.64-2h-.66Z"/><path class="cls-1" d="M121.94,178.71v10.85H120V178.71h-2.9v-1.82h7.75v1.82Z"/><path class="cls-1" d="M126.1,180.34c0-.43,0-.59,0-.64a3,3,0,0,1,.86-2.24,3.1,3.1,0,0,1,2.22-.8,3.25,3.25,0,0,1,2.3.83,2.85,2.85,0,0,1,.82,2.13,2.7,2.7,0,0,1-1.12,2.34,6.36,6.36,0,0,1-1.33.66l-.57.23a2.31,2.31,0,0,0-.76.42,1,1,0,0,0-.29.68,1,1,0,0,0,.32.74.84.84,0,0,0,.57.19.92.92,0,0,0,.73-.28,1.54,1.54,0,0,0,.3-1H132a3.24,3.24,0,0,1-.83,2.21,2.93,2.93,0,0,1-2.07.79,2.9,2.9,0,0,1-2-.77,2.77,2.77,0,0,1-.78-2,2.36,2.36,0,0,1,.61-1.63,4.44,4.44,0,0,1,1.65-1,4.28,4.28,0,0,0,1.39-.67,1.32,1.32,0,0,0,.09-1.84,1.24,1.24,0,0,0-.87-.32,1.21,1.21,0,0,0-.87.34,1.47,1.47,0,0,0-.33,1,3.09,3.09,0,0,0,.08.62Zm3.08,7.19a1.14,1.14,0,1,1-1.14,1.13A1.14,1.14,0,0,1,129.18,187.53Z"/></svg>