<svg id="copy2" xmlns="http://www.w3.org/2000/svg" viewBox="0 0 300 250"><defs><style>.cls-1{fill:#e61e8f;}</style></defs><title>Artboard 1 copy 20</title><path class="cls-1" d="M53.24,125.7l3.42,8.69,3.51-9.31,3.39,9.31,3.54-8.69h2.14l-5.8,13.83-3.39-9.21-3.43,9.21L51.09,125.7Z"/><path class="cls-1" d="M72.77,130.84h5.57V125.7h2v13h-2v-6H72.77v6h-2v-13h2Z"/><path class="cls-1" d="M86.05,133.08l-4.27-7.38H84l3,5.2,3-5.2H92.3L88,133.08v5.61h-2Z"/><path class="cls-1" d="M100.93,125.7a7.55,7.55,0,0,1,4.82,1.27,6.44,6.44,0,0,1,2.5,5.24,6.18,6.18,0,0,1-2.61,5.23,7.4,7.4,0,0,1-4.75,1.25H98.2v-13Zm-.74,11.12H101a5.67,5.67,0,0,0,3.45-.91,4.81,4.81,0,0,0,0-7.44,5.81,5.81,0,0,0-3.47-.9h-.85Z"/><path class="cls-1" d="M123.53,132.21a6.76,6.76,0,1,1-6.75-6.74A6.58,6.58,0,0,1,123.53,132.21Zm-2,0a4.77,4.77,0,1,0-4.77,4.9A4.65,4.65,0,0,0,121.55,132.21Z"/><path class="cls-1" d="M125.93,138.69V124.83l9.42,9.87v-9h2v13.79l-9.42-9.87v9.07Z"/><path class="cls-1" d="M141.76,125l1.71.66-2.41,4.81-1.29-.52Z"/><path class="cls-1" d="M149.51,127.57v11.12h-2V127.57h-3V125.7h7.94v1.87Z"/><path class="cls-1" d="M161.29,133.08,157,125.7h2.26l3,5.2,3-5.2h2.26l-4.26,7.38v5.61h-2Z"/><path class="cls-1" d="M181.89,132.21a6.76,6.76,0,1,1-6.75-6.74A6.58,6.58,0,0,1,181.89,132.21Zm-2,0a4.77,4.77,0,1,0-4.77,4.9A4.65,4.65,0,0,0,179.91,132.21Z"/><path class="cls-1" d="M186.28,125.7v7.83a4.64,4.64,0,0,0,.4,2.24,2.85,2.85,0,0,0,4.83,0,4.54,4.54,0,0,0,.41-2.24V125.7h2v8.36a4.83,4.83,0,0,1-1.21,3.37,5,5,0,0,1-7.2,0,4.78,4.78,0,0,1-1.21-3.37V125.7Z"/><path class="cls-1" d="M60.21,155.84H54.66L53.24,159H51.09l6.47-13.75L63.71,159H61.57Zm-.8-1.87-1.93-4.4-2,4.4Z"/><path class="cls-1" d="M70.86,148.87a2.1,2.1,0,0,0-.59-.82,2.06,2.06,0,0,0-1.4-.46c-1.21,0-1.83.72-1.83,1.55,0,.39.14,1.07,1.4,1.58l1.31.53c2.39,1,3.06,2.33,3.06,3.81a4,4,0,0,1-4.19,4.17,3.8,3.8,0,0,1-3.06-1.31,4.19,4.19,0,0,1-1.09-2.53l2-.42a2.81,2.81,0,0,0,.54,1.65,2.05,2.05,0,0,0,1.7.78,2.09,2.09,0,0,0,2.14-2.18c0-1.33-1-1.87-1.87-2.22l-1.25-.53a3.66,3.66,0,0,1-2.64-3.29,3.5,3.5,0,0,1,3.79-3.42,3.85,3.85,0,0,1,2.61.87,4.33,4.33,0,0,1,1,1.31Z"/><path class="cls-1" d="M77.19,151.17l5-5.18h2.61L79,151.87l5.9,7.11H82.21l-4.63-5.77-.39.39V159h-2V146h2Z"/><path class="cls-1" d="M94.56,147.86V159h-2V147.86h-3V146h8v1.87Z"/><path class="cls-1" d="M101.18,151.13h5.57V146h2v13h-2v-6h-5.57v6h-2V146h2Z"/><path class="cls-1" d="M118.92,147.86h-5.18v3.29h5V153h-5v4.09h5.18V159h-7.17V146h7.17Z"/><path class="cls-1" d="M121,159l2.73-14,4.52,10.08L132.8,145l2.45,14h-2l-1.32-7.83-3.78,8.43-3.74-8.45L123,159Z"/><path class="cls-1" d="M137.42,149.53c0-.44,0-.6,0-.66a3.09,3.09,0,0,1,.88-2.3,3.14,3.14,0,0,1,2.27-.81,3.29,3.29,0,0,1,2.36.85,2.92,2.92,0,0,1,.84,2.18,2.79,2.79,0,0,1-1.15,2.4,6.58,6.58,0,0,1-1.36.68l-.59.23a2.54,2.54,0,0,0-.78.43,1.06,1.06,0,0,0-.29.7,1,1,0,0,0,.33.76.85.85,0,0,0,.59.2.94.94,0,0,0,.74-.3,1.53,1.53,0,0,0,.31-1h1.9a3.29,3.29,0,0,1-.85,2.26,3,3,0,0,1-2.12.82,2.93,2.93,0,0,1-2.05-.8,2.82,2.82,0,0,1-.8-2.06,2.43,2.43,0,0,1,.63-1.68,4.56,4.56,0,0,1,1.69-1,4.68,4.68,0,0,0,1.42-.68,1.37,1.37,0,0,0,.1-1.89,1.32,1.32,0,0,0-.9-.33,1.2,1.2,0,0,0-.89.35,1.45,1.45,0,0,0-.33,1,4.18,4.18,0,0,0,.07.64Zm3.15,7.36a1.17,1.17,0,1,1-1.17,1.17A1.17,1.17,0,0,1,140.57,156.89Z"/></svg>