<svg id="copy-rotate-4" xmlns="http://www.w3.org/2000/svg" viewBox="0 0 300 250"><defs><style>.cls-1{fill:#38a7de;}</style></defs><title>copy-rotate-4</title><path class="cls-1" d="M58.27,179.7a1.92,1.92,0,0,0-.57-.8,2,2,0,0,0-1.37-.46A1.57,1.57,0,0,0,54.55,180c0,.38.13,1,1.37,1.54l1.27.52c2.34.95,3,2.27,3,3.72a3.9,3.9,0,0,1-4.08,4.06,3.74,3.74,0,0,1-3-1.27A4.13,4.13,0,0,1,52,186.06l1.92-.42a2.77,2.77,0,0,0,.53,1.62,2,2,0,0,0,1.65.76,2,2,0,0,0,2.09-2.13c0-1.29-1-1.82-1.82-2.16l-1.22-.52A3.57,3.57,0,0,1,52.61,180a3.42,3.42,0,0,1,3.71-3.34,3.75,3.75,0,0,1,2.54.85,4.43,4.43,0,0,1,1,1.28Z"/><path class="cls-1" d="M75.18,183.23a6.59,6.59,0,1,1-6.59-6.57A6.43,6.43,0,0,1,75.18,183.23Zm-1.94,0A4.66,4.66,0,1,0,68.59,188,4.53,4.53,0,0,0,73.24,183.23Z"/><path class="cls-1" d="M87,179.85a5,5,0,0,0-3.44-1.41,4.79,4.79,0,0,0,0,9.58A5,5,0,0,0,87,186.56v2.29a6.9,6.9,0,0,1-3.48,1A6.35,6.35,0,0,1,79,188.06a6.22,6.22,0,0,1-2-4.79,6.65,6.65,0,0,1,2-5,6.29,6.29,0,0,1,4.58-1.65,6,6,0,0,1,3.38.91Z"/><path class="cls-1" d="M91.33,176.89v12.67H89.39V176.89Z"/><path class="cls-1" d="M101.82,186.5H96.41L95,189.56H92.93l6.31-13.41,6,13.41h-2.09Zm-.78-1.82-1.88-4.3-2,4.3Z"/><path class="cls-1" d="M108.77,176.89v10.84h3.73v1.83h-5.66V176.89Z"/><path class="cls-1" d="M113.87,180.34c0-.43,0-.59,0-.64a3,3,0,0,1,.85-2.24,3.11,3.11,0,0,1,2.23-.8,3.25,3.25,0,0,1,2.3.83,2.84,2.84,0,0,1,.81,2.13A2.7,2.7,0,0,1,118.9,182a6.36,6.36,0,0,1-1.33.66l-.57.23a2.41,2.41,0,0,0-.76.42,1,1,0,0,0-.28.68,1,1,0,0,0,.32.74.8.8,0,0,0,.57.19.91.91,0,0,0,.72-.28,1.49,1.49,0,0,0,.31-1h1.86a3.2,3.2,0,0,1-.84,2.21,3,3,0,0,1-4.07,0,2.81,2.81,0,0,1-.77-2,2.35,2.35,0,0,1,.6-1.63,4.47,4.47,0,0,1,1.66-1,4.32,4.32,0,0,0,1.38-.67,1.17,1.17,0,0,0,.42-.95,1.24,1.24,0,0,0-.32-.89,1.28,1.28,0,0,0-.88-.32,1.21,1.21,0,0,0-.87.34,1.46,1.46,0,0,0-.32,1,4.05,4.05,0,0,0,.07.62Zm3.07,7.19a1.14,1.14,0,1,1-1.14,1.13A1.14,1.14,0,0,1,116.94,187.53Z"/></svg>