<svg id="copy3" xmlns="http://www.w3.org/2000/svg" viewBox="0 0 300 250"><defs><style>.cls-1{fill:#e61e8f;}</style></defs><title>Artboard 1 copy 21</title><path class="cls-1" d="M59,127.12h5.36v.1a7.08,7.08,0,0,1-1.93,5.26A6.07,6.07,0,0,1,58,134.14a5.7,5.7,0,0,1-4.42-1.77,6.82,6.82,0,0,1,4.85-11.72,7.08,7.08,0,0,1,3.39.82,6,6,0,0,1,2.11,2l-1.58,1.11a5.29,5.29,0,0,0-1.6-1.48,4.36,4.36,0,0,0-2.3-.56A4.72,4.72,0,0,0,55,123.83a5.3,5.3,0,0,0-1.38,3.64A5.21,5.21,0,0,0,55,131a4.19,4.19,0,0,0,3.25,1.31,3.9,3.9,0,0,0,2.9-1.15,3.44,3.44,0,0,0,1.09-2.2H59Z"/><path class="cls-1" d="M73.9,122.76H68.72v3.29h5v1.87h-5V132H73.9v1.87H66.73v-13H73.9Z"/><path class="cls-1" d="M80,122.76v11.13H78V122.76H75v-1.87H83v1.87Z"/><path class="cls-1" d="M92.67,122.76v11.13h-2V122.76h-3v-1.87h8v1.87Z"/><path class="cls-1" d="M99.29,126h5.57v-5.14h2v13h-2v-6H99.29v6h-2v-13h2Z"/><path class="cls-1" d="M117,122.76h-5.18v3.29h5v1.87h-5V132H117v1.87h-7.17v-13H117Z"/><path class="cls-1" d="M136.86,127.4a6.77,6.77,0,1,1-6.77-6.75A6.6,6.6,0,0,1,136.86,127.4Zm-2,0a4.78,4.78,0,1,0-4.78,4.91A4.65,4.65,0,0,0,134.87,127.4Z"/><path class="cls-1" d="M142.11,120.89a5.13,5.13,0,0,1,2.85.7,3.77,3.77,0,0,1,1.62,3.16,3.63,3.63,0,0,1-1.27,2.84,4.67,4.67,0,0,1-3.18,1h-.89v5.29h-2v-13Zm-.87,5.88h.89c1.72,0,2.54-.83,2.54-2,0-.72-.29-2-2.56-2h-.87Z"/><path class="cls-1" d="M150.49,120.89v13h-2v-13Z"/><path class="cls-1" d="M153.51,133.89V120l9.43,9.88v-9h2v13.79l-9.43-9.87v9.08Z"/><path class="cls-1" d="M169.94,120.89v13h-2v-13Z"/><path class="cls-1" d="M185.86,127.4a6.77,6.77,0,1,1-6.76-6.75A6.59,6.59,0,0,1,185.86,127.4Zm-2,0a4.78,4.78,0,1,0-4.77,4.91A4.65,4.65,0,0,0,183.87,127.4Z"/><path class="cls-1" d="M188.25,133.89V120l9.43,9.88v-9h2v13.79l-9.43-9.87v9.08Z"/><path class="cls-1" d="M208.3,123.77a2.18,2.18,0,0,0-.58-.82,2.08,2.08,0,0,0-1.41-.46,1.61,1.61,0,0,0-1.83,1.56c0,.39.14,1.07,1.41,1.57l1.3.53c2.4,1,3.06,2.34,3.06,3.82a4,4,0,0,1-4.19,4.17,3.8,3.8,0,0,1-3.06-1.31,4.21,4.21,0,0,1-1.09-2.53l2-.43a2.84,2.84,0,0,0,.54,1.66,2.05,2.05,0,0,0,1.7.78,2.09,2.09,0,0,0,2.14-2.19c0-1.32-1-1.87-1.87-2.22l-1.25-.52a3.67,3.67,0,0,1-2.64-3.3,3.51,3.51,0,0,1,3.8-3.43,3.84,3.84,0,0,1,2.61.88,4.33,4.33,0,0,1,1,1.31Z"/><path class="cls-1" d="M55.86,143.06v11.12h-2V143.06h-3v-1.88h8v1.88Z"/><path class="cls-1" d="M62.48,146.33h5.58v-5.15h2v13h-2v-6H62.48v6h-2v-13h2Z"/><path class="cls-1" d="M80.7,151H75.15l-1.42,3.14H71.58l6.47-13.76,6.16,13.76H82.07Zm-.8-1.87L78,144.77l-2,4.4Z"/><path class="cls-1" d="M89.35,143.06v11.12h-2V143.06h-3v-1.88h7.94v1.88Z"/><path class="cls-1" d="M98,154.18l2.73-14,4.52,10.09,4.56-10.09,2.46,14h-2L109,146.35l-3.78,8.44-3.74-8.46-1.36,7.85Z"/><path class="cls-1" d="M122.57,151H117l-1.42,3.14h-2.15l6.47-13.76,6.16,13.76h-2.14Zm-.8-1.87-1.92-4.4-2,4.4Z"/><path class="cls-1" d="M131.22,143.06v11.12h-2V143.06h-3v-1.88h7.94v1.88Z"/><path class="cls-1" d="M139.47,143.06v11.12h-2V143.06h-3v-1.88h7.95v1.88Z"/><path class="cls-1" d="M151.27,143.06h-5.18v3.29h5v1.87h-5v4.09h5.18v1.87H144.1v-13h7.17Z"/><path class="cls-1" d="M156.07,141.18a5.83,5.83,0,0,1,3.42.76A3.62,3.62,0,0,1,161,145a3.57,3.57,0,0,1-2.88,3.63l4,5.55h-2.39l-3.72-5.32h-.36v5.32h-2v-13Zm-.34,6h.63c.54,0,2.76-.06,2.76-2.13,0-1.83-1.73-2-2.7-2h-.69Z"/><path class="cls-1" d="M164.39,151.75l1.71.66-2.42,4.81-1.28-.53Z"/><path class="cls-1" d="M55.89,161.93H53v2.12h2.81v1.21H53v3.84H51.7v-8.38h4.19Z"/><path class="cls-1" d="M58.78,160.72a3.78,3.78,0,0,1,2.21.49,2.35,2.35,0,0,1,1,2,2.31,2.31,0,0,1-1.86,2.34l2.61,3.58H61.19l-2.39-3.43h-.23v3.43H57.29v-8.38Zm-.21,3.85H59c.35,0,1.79,0,1.79-1.37,0-1.18-1.12-1.3-1.75-1.3h-.44Z"/><path class="cls-1" d="M72.25,164.92a4.36,4.36,0,1,1-4.36-4.35A4.25,4.25,0,0,1,72.25,164.92Zm-1.28,0a3.08,3.08,0,1,0-3.08,3.16A3,3,0,0,0,71,164.92Z"/><path class="cls-1" d="M73.55,169.1l1.76-9,2.91,6.5,2.94-6.5,1.58,9H81.43l-.85-5-2.44,5.44L75.73,164l-.88,5.06Z"/><path class="cls-1" d="M89.63,161.93v7.17H88.35v-7.17H86.43v-1.21h5.12v1.21Z"/><path class="cls-1" d="M93.9,164h3.59v-3.32h1.29v8.38H97.49v-3.86H93.9v3.86H92.62v-8.38H93.9Z"/><path class="cls-1" d="M109,164.92a4.36,4.36,0,1,1-4.36-4.35A4.25,4.25,0,0,1,109,164.92Zm-1.28,0a3.08,3.08,0,1,0-3.08,3.16A3,3,0,0,0,107.76,164.92Z"/><path class="cls-1" d="M111.87,160.72v5.05a2.86,2.86,0,0,0,.27,1.45,1.83,1.83,0,0,0,1.55.86,1.85,1.85,0,0,0,1.56-.86,3,3,0,0,0,.26-1.45v-5.05h1.28v5.39a3,3,0,0,1-3.1,3.15,3,3,0,0,1-2.32-1,3.09,3.09,0,0,1-.78-2.17v-5.39Z"/><path class="cls-1" d="M122.36,162.58a1.39,1.39,0,0,0-.37-.53,1.37,1.37,0,0,0-.91-.3,1,1,0,0,0-1.18,1c0,.25.09.69.91,1l.84.34c1.54.63,2,1.51,2,2.46a2.58,2.58,0,0,1-2.7,2.69,2.42,2.42,0,0,1-2-.84,2.71,2.71,0,0,1-.71-1.63l1.27-.28a1.8,1.8,0,0,0,.35,1.07,1.33,1.33,0,0,0,1.1.5,1.34,1.34,0,0,0,1.38-1.4c0-.86-.66-1.21-1.21-1.44l-.8-.34a2.35,2.35,0,0,1-1.71-2.12,2.26,2.26,0,0,1,2.45-2.21,2.44,2.44,0,0,1,1.68.57,2.7,2.7,0,0,1,.64.84Z"/><path class="cls-1" d="M130.09,167.08h-3.58l-.92,2h-1.38l4.17-8.87,4,8.87H131Zm-.52-1.21L128.33,163,127,165.87Z"/><path class="cls-1" d="M133.35,169.1v-8.94l6.08,6.36v-5.8h1.28v8.89l-6.08-6.36v5.85Z"/><path class="cls-1" d="M144.42,160.72a4.89,4.89,0,0,1,3.11.82,4.14,4.14,0,0,1,1.61,3.38,4,4,0,0,1-1.69,3.38,4.79,4.79,0,0,1-3.06.8h-1.73v-8.38Zm-.48,7.17h.55a3.62,3.62,0,0,0,2.22-.59,2.94,2.94,0,0,0,1.15-2.38,3,3,0,0,0-1.13-2.41,3.75,3.75,0,0,0-2.24-.58h-.55Z"/><path class="cls-1" d="M154.3,162.58a1.39,1.39,0,0,0-.37-.53,1.37,1.37,0,0,0-.91-.3,1,1,0,0,0-1.18,1c0,.25.09.69.91,1l.84.34c1.54.63,2,1.51,2,2.46a2.58,2.58,0,0,1-2.7,2.69,2.42,2.42,0,0,1-2-.84,2.71,2.71,0,0,1-.71-1.63l1.27-.28a1.8,1.8,0,0,0,.35,1.07,1.41,1.41,0,0,0,2.48-.9c0-.86-.65-1.21-1.21-1.44l-.8-.34a2.35,2.35,0,0,1-1.71-2.12,2.26,2.26,0,0,1,2.45-2.21,2.44,2.44,0,0,1,1.68.57,2.7,2.7,0,0,1,.64.84Z"/><path class="cls-1" d="M168.29,164.92a4.36,4.36,0,1,1-4.36-4.35A4.25,4.25,0,0,1,168.29,164.92Zm-1.28,0a3.08,3.08,0,1,0-3.08,3.16A3,3,0,0,0,167,164.92Z"/><path class="cls-1" d="M174,161.93h-2.91v2.12h2.81v1.21h-2.81v3.84h-1.28v-8.38H174Z"/><path class="cls-1" d="M180.62,161.93v7.17h-1.28v-7.17h-1.93v-1.21h5.13v1.21Z"/><path class="cls-1" d="M185.1,160.72a3.78,3.78,0,0,1,2.21.49,2.33,2.33,0,0,1,1,2,2.3,2.3,0,0,1-1.85,2.34l2.61,3.58h-1.55l-2.4-3.43h-.22v3.43h-1.28v-8.38Zm-.21,3.85h.4c.35,0,1.78,0,1.78-1.37,0-1.18-1.11-1.3-1.74-1.3h-.44Z"/><path class="cls-1" d="M191.54,160.72v5.05a3,3,0,0,0,.26,1.45,1.85,1.85,0,0,0,1.56.86,1.83,1.83,0,0,0,1.55-.86,2.86,2.86,0,0,0,.27-1.45v-5.05h1.28v5.39a3.09,3.09,0,0,1-.78,2.17,3.25,3.25,0,0,1-4.65,0,3.07,3.07,0,0,1-.77-2.17v-5.39Z"/><path class="cls-1" d="M202,162.58a1.42,1.42,0,0,0-.38-.53,1.34,1.34,0,0,0-.9-.3,1,1,0,0,0-1.19,1c0,.25.09.69.91,1l.84.34c1.54.63,2,1.51,2,2.46a2.58,2.58,0,0,1-2.7,2.69,2.44,2.44,0,0,1-2-.84,2.7,2.7,0,0,1-.7-1.63l1.27-.28a1.8,1.8,0,0,0,.35,1.07,1.32,1.32,0,0,0,1.09.5,1.34,1.34,0,0,0,1.38-1.4c0-.86-.65-1.21-1.2-1.44l-.81-.34a2.35,2.35,0,0,1-1.71-2.12,2.26,2.26,0,0,1,2.45-2.21,2.47,2.47,0,0,1,1.69.57,3,3,0,0,1,.64.84Z"/><path class="cls-1" d="M207.15,161.93v7.17h-1.28v-7.17H204v-1.21h5.12v1.21Z"/><path class="cls-1" d="M214.77,161.93h-3.34v2.12h3.24v1.21h-3.24v2.63h3.34v1.21h-4.62v-8.38h4.62Z"/><path class="cls-1" d="M218.12,160.72a4.9,4.9,0,0,1,3.12.82,4.14,4.14,0,0,1,1.61,3.38,4,4,0,0,1-1.69,3.38,4.79,4.79,0,0,1-3.06.8h-1.73v-8.38Zm-.47,7.17h.55a3.62,3.62,0,0,0,2.22-.59,3.09,3.09,0,0,0,0-4.79,3.72,3.72,0,0,0-2.23-.58h-.55Z"/><path class="cls-1" d="M224.61,167.53l1.1.43-1.55,3.1-.83-.34Z"/><path class="cls-1" d="M52.12,176.13,54.46,182l2.34-5.84h1.38l-3.72,8.92-3.72-8.92Z"/><path class="cls-1" d="M63.8,177.34H60.45v2.12h3.24v1.2H60.45v2.64H63.8v1.21H59.17v-8.38H63.8Z"/><path class="cls-1" d="M66.89,176.13a3.78,3.78,0,0,1,2.21.49,2.33,2.33,0,0,1,1,2,2.3,2.3,0,0,1-1.86,2.34l2.61,3.58H69.3l-2.4-3.43h-.23v3.43H65.39v-8.38ZM66.67,180h.41c.35,0,1.78,0,1.78-1.37,0-1.18-1.12-1.29-1.75-1.29h-.44Z"/><path class="cls-1" d="M73.32,176.13v8.38H72v-8.38Z"/><path class="cls-1" d="M79.46,177.34H76.55v2.12h2.81v1.2H76.55v3.85H75.27v-8.38h4.19Z"/><path class="cls-1" d="M82.14,176.13v8.38H80.86v-8.38Z"/><path class="cls-1" d="M88.71,177.34H85.37v2.12h3.24v1.2H85.37v2.64h3.34v1.21H84.09v-8.38h4.62Z"/><path class="cls-1" d="M92.07,176.13a4.87,4.87,0,0,1,3.11.82,4.13,4.13,0,0,1,1.61,3.38,4,4,0,0,1-1.68,3.37,4.83,4.83,0,0,1-3.07.81H90.31v-8.38Zm-.48,7.17h.55a3.65,3.65,0,0,0,2.23-.59,3,3,0,0,0,1.14-2.38,3,3,0,0,0-1.13-2.42,3.8,3.8,0,0,0-2.24-.57h-.55Z"/><path class="cls-1" d="M104.82,178a1.3,1.3,0,0,0-1.28-.83,1,1,0,0,0-1.18,1c0,.25.09.69.91,1l.84.34c1.54.63,2,1.51,2,2.46a2.58,2.58,0,0,1-2.7,2.69,2.42,2.42,0,0,1-2-.84,2.68,2.68,0,0,1-.71-1.63l1.27-.28a1.85,1.85,0,0,0,.35,1.07,1.33,1.33,0,0,0,1.1.5,1.35,1.35,0,0,0,1.38-1.41c0-.85-.66-1.2-1.21-1.43l-.8-.34a2.36,2.36,0,0,1-1.71-2.12,2.26,2.26,0,0,1,2.45-2.21,2.44,2.44,0,0,1,1.68.57,2.7,2.7,0,0,1,.64.84Z"/><path class="cls-1" d="M110,177.34v7.17h-1.28v-7.17h-1.92v-1.21h5.12v1.21Z"/><path class="cls-1" d="M114.22,176.13v5.05a2.93,2.93,0,0,0,.26,1.44,1.83,1.83,0,0,0,3.12,0,2.93,2.93,0,0,0,.26-1.44v-5.05h1.28v5.39a3,3,0,0,1-3.1,3.15,3,3,0,0,1-2.32-1,3.1,3.1,0,0,1-.78-2.17v-5.39Z"/><path class="cls-1" d="M122.85,176.13A4.9,4.9,0,0,1,126,177a4.13,4.13,0,0,1,1.61,3.38,4,4,0,0,1-1.69,3.37,4.8,4.8,0,0,1-3.06.81H121.1v-8.38Zm-.47,7.17h.55a3.62,3.62,0,0,0,2.22-.59,2.94,2.94,0,0,0,1.15-2.38,3,3,0,0,0-1.14-2.42,3.77,3.77,0,0,0-2.23-.57h-.55Z"/><path class="cls-1" d="M133.75,177.34h-3.34v2.12h3.24v1.2h-3.24v2.64h3.34v1.21h-4.62v-8.38h4.62Z"/><path class="cls-1" d="M135.35,184.51v-8.94l6.07,6.36v-5.8h1.28V185l-6.07-6.36v5.85Z"/><path class="cls-1" d="M147,177.34v7.17H145.7v-7.17h-1.92v-1.21h5.12v1.21Z"/><path class="cls-1" d="M153.59,178a1.42,1.42,0,0,0-.38-.53,1.34,1.34,0,0,0-.9-.3,1,1,0,0,0-1.18,1c0,.25.08.69.9,1l.84.34c1.55.63,2,1.51,2,2.46a2.58,2.58,0,0,1-2.7,2.69,2.45,2.45,0,0,1-2-.84,2.72,2.72,0,0,1-.7-1.63l1.27-.28a1.85,1.85,0,0,0,.35,1.07,1.32,1.32,0,0,0,1.09.5,1.34,1.34,0,0,0,1.38-1.41c0-.85-.65-1.2-1.2-1.43l-.81-.34a2.35,2.35,0,0,1-1.7-2.12,2.25,2.25,0,0,1,2.44-2.21,2.47,2.47,0,0,1,1.69.57,3,3,0,0,1,.64.84Z"/><path class="cls-1" d="M167.57,180.33a4.36,4.36,0,1,1-4.36-4.35A4.25,4.25,0,0,1,167.57,180.33Zm-1.28,0a3.08,3.08,0,1,0-3.08,3.16A3,3,0,0,0,166.29,180.33Z"/><path class="cls-1" d="M173.31,177.34H170.4v2.12h2.81v1.2H170.4v3.85h-1.28v-8.38h4.19Z"/><path class="cls-1" d="M182.5,182.49h-3.58l-.92,2h-1.38l4.17-8.87,4,8.87h-1.38Zm-.52-1.21-1.24-2.84-1.29,2.84Z"/><path class="cls-1" d="M187,176.13v7.17h2.46v1.21h-3.74v-8.38Z"/><path class="cls-1" d="M191.93,176.13v7.17h2.46v1.21h-3.75v-8.38Z"/><path class="cls-1" d="M203.32,182.49h-3.58l-.92,2h-1.38l4.17-8.87,4,8.87H204.2Zm-.51-1.21-1.25-2.84-1.29,2.84Z"/><path class="cls-1" d="M210.91,180.15h3.45v.06a4.56,4.56,0,0,1-1.24,3.39,3.93,3.93,0,0,1-2.85,1.07,3.64,3.64,0,0,1-2.85-1.14,4.45,4.45,0,0,1,5.31-7,3.9,3.9,0,0,1,1.36,1.25l-1,.72a3.51,3.51,0,0,0-1-1,2.87,2.87,0,0,0-1.48-.36,3,3,0,0,0-2.21.87,3.49,3.49,0,0,0,0,4.62,2.75,2.75,0,0,0,2.1.84,2.5,2.5,0,0,0,1.87-.74,2.2,2.2,0,0,0,.7-1.42h-2.08Z"/><path class="cls-1" d="M220.53,177.34h-3.34v2.12h3.24v1.2h-3.24v2.64h3.34v1.21h-4.62v-8.38h4.62Z"/><path class="cls-1" d="M225.75,178a1.42,1.42,0,0,0-.38-.53,1.34,1.34,0,0,0-.9-.3,1,1,0,0,0-1.18,1c0,.25.09.69.9,1l.84.34c1.55.63,2,1.51,2,2.46a2.58,2.58,0,0,1-2.7,2.69,2.46,2.46,0,0,1-2-.84,2.72,2.72,0,0,1-.7-1.63l1.27-.28a1.85,1.85,0,0,0,.35,1.07,1.32,1.32,0,0,0,1.09.5,1.34,1.34,0,0,0,1.38-1.41c0-.85-.65-1.2-1.2-1.43l-.8-.34a2.35,2.35,0,0,1-1.71-2.12,2.26,2.26,0,0,1,2.45-2.21,2.44,2.44,0,0,1,1.68.57,3,3,0,0,1,.64.84Z"/><path class="cls-1" d="M229.06,183.15a.76.76,0,1,1-.76.75A.76.76,0,0,1,229.06,183.15Z"/></svg>