<svg id="copy-rotate-9" xmlns="http://www.w3.org/2000/svg" viewBox="0 0 300 250"><defs><style>.cls-1{fill:#38a7de;}</style></defs><title>copy-rotate-9</title><path class="cls-1" d="M62.19,179.85a5,5,0,0,0-3.44-1.41,4.53,4.53,0,0,0-4.62,4.83A4.58,4.58,0,0,0,58.77,188a5.06,5.06,0,0,0,3.42-1.46v2.29a7,7,0,0,1-3.48,1,6.35,6.35,0,0,1-4.48-1.74,6.2,6.2,0,0,1-2-4.79,6.61,6.61,0,0,1,2-5,6.28,6.28,0,0,1,4.57-1.65,6.08,6.08,0,0,1,3.39.91Z"/><path class="cls-1" d="M76.76,183.23a6.59,6.59,0,1,1-6.59-6.57A6.43,6.43,0,0,1,76.76,183.23Zm-1.94,0A4.66,4.66,0,1,0,70.17,188,4.54,4.54,0,0,0,74.82,183.23Z"/><path class="cls-1" d="M78.43,189.56l2.66-13.62,4.41,9.84L90,175.94l2.39,13.62h-2l-1.29-7.64-3.68,8.23-3.65-8.25-1.33,7.66Z"/><path class="cls-1" d="M97.79,176.89a5,5,0,0,1,2.78.68,3.67,3.67,0,0,1,1.57,3.08,3.55,3.55,0,0,1-1.23,2.77,4.56,4.56,0,0,1-3.1,1h-.87v5.15H95V176.89Zm-.85,5.73h.87c1.67,0,2.47-.81,2.47-2,0-.7-.28-2-2.49-2h-.85Z"/><path class="cls-1" d="M111.11,178.71h-5v3.21H111v1.82h-4.9v4h5v1.83h-7V176.89h7Z"/><path class="cls-1" d="M117.13,178.71v10.85H115.2V178.71h-2.91v-1.82H120v1.82Z"/><path class="cls-1" d="M123.69,176.89v12.67h-1.94V176.89Z"/><path class="cls-1" d="M130.24,178.71v10.85h-1.93V178.71H125.4v-1.82h7.75v1.82Z"/><path class="cls-1" d="M147.06,183.23a6.6,6.6,0,1,1-6.59-6.57A6.43,6.43,0,0,1,147.06,183.23Zm-1.94,0a4.66,4.66,0,1,0-4.65,4.79A4.54,4.54,0,0,0,145.12,183.23Z"/><path class="cls-1" d="M151.75,176.89a5.71,5.71,0,0,1,3.35.74,3.55,3.55,0,0,1,1.5,3,3.47,3.47,0,0,1-2.81,3.53l4,5.42H155.4l-3.63-5.19h-.34v5.19h-1.94V176.89Zm-.32,5.81H152c.53,0,2.69-.06,2.69-2.07,0-1.79-1.69-2-2.64-2h-.66Z"/><path class="cls-1" d="M165.11,179.7a2.12,2.12,0,0,0-.57-.8,2,2,0,0,0-1.37-.46,1.58,1.58,0,0,0-1.79,1.52c0,.38.14,1,1.37,1.54L164,182c2.33.95,3,2.27,3,3.72a3.9,3.9,0,0,1-4.09,4.06,3.72,3.72,0,0,1-3-1.27,4.07,4.07,0,0,1-1.06-2.47l1.92-.42a2.71,2.71,0,0,0,.53,1.62A2,2,0,0,0,163,188a2,2,0,0,0,2.09-2.13c0-1.29-1-1.82-1.82-2.16l-1.22-.52a3.57,3.57,0,0,1-2.58-3.21,3.42,3.42,0,0,1,3.7-3.34,3.76,3.76,0,0,1,2.55.85,4.43,4.43,0,0,1,1,1.28Z"/><path class="cls-1" d="M169,180.34c0-.43,0-.59,0-.64a3,3,0,0,1,.85-2.24,3.1,3.1,0,0,1,2.22-.8,3.23,3.23,0,0,1,2.3.83,2.85,2.85,0,0,1,.82,2.13A2.7,2.7,0,0,1,174,182a6.36,6.36,0,0,1-1.33.66l-.57.23a2.31,2.31,0,0,0-.76.42,1,1,0,0,0-.29.68,1,1,0,0,0,.33.74.8.8,0,0,0,.57.19.91.91,0,0,0,.72-.28,1.48,1.48,0,0,0,.3-1h1.86a3.24,3.24,0,0,1-.83,2.21,2.93,2.93,0,0,1-2.07.79,2.9,2.9,0,0,1-2-.77,2.77,2.77,0,0,1-.78-2,2.36,2.36,0,0,1,.61-1.63,4.4,4.4,0,0,1,1.66-1,4.32,4.32,0,0,0,1.38-.67,1.17,1.17,0,0,0,.42-.95,1.24,1.24,0,0,0-.32-.89,1.28,1.28,0,0,0-.88-.32,1.21,1.21,0,0,0-.87.34,1.46,1.46,0,0,0-.32,1,3.1,3.1,0,0,0,.07.62Zm3.08,7.19a1.14,1.14,0,1,1-1.14,1.13A1.14,1.14,0,0,1,172.06,187.53Z"/></svg>