<svg id="copy1" xmlns="http://www.w3.org/2000/svg" viewBox="0 0 300 250"><defs><style>.cls-1{fill:#e61e8f;}</style></defs><title>Artboard 1 copy 19</title><path class="cls-1" d="M53.24,115.52l3.42,8.68,3.51-9.3,3.39,9.3,3.54-8.68h2.14l-5.8,13.82-3.39-9.21-3.43,9.21-5.53-13.82Z"/><path class="cls-1" d="M72.77,120.66h5.57v-5.14h2v13h-2v-6H72.77v6h-2v-13h2Z"/><path class="cls-1" d="M91,125.37H85.42L84,128.5H81.86l6.47-13.74,6.15,13.74H92.34Zm-.79-1.87-1.93-4.4-2,4.4Z"/><path class="cls-1" d="M99.62,117.39V128.5h-2V117.39h-3v-1.87h7.94v1.87Z"/><path class="cls-1" d="M111.42,115.52a7.57,7.57,0,0,1,4.83,1.26,6.43,6.43,0,0,1,2.49,5.24,6.19,6.19,0,0,1-2.61,5.24,7.45,7.45,0,0,1-4.75,1.24H108.7v-13Zm-.74,11.12h.86a5.6,5.6,0,0,0,3.44-.92,4.57,4.57,0,0,0,1.78-3.7,4.62,4.62,0,0,0-1.76-3.74,5.78,5.78,0,0,0-3.46-.89h-.86Z"/><path class="cls-1" d="M134,122a6.76,6.76,0,1,1-6.76-6.74A6.59,6.59,0,0,1,134,122Zm-2,0a4.77,4.77,0,1,0-4.77,4.91A4.64,4.64,0,0,0,132,122Z"/><path class="cls-1" d="M146.47,118.4a2,2,0,0,0-.58-.82,2.08,2.08,0,0,0-1.4-.46c-1.21,0-1.83.71-1.83,1.55,0,.39.13,1.07,1.4,1.58l1.3.53c2.4,1,3.06,2.33,3.06,3.81a4,4,0,0,1-4.19,4.17,3.78,3.78,0,0,1-3-1.31,4.15,4.15,0,0,1-1.09-2.53l2-.43a2.82,2.82,0,0,0,.55,1.66,2,2,0,0,0,1.69.78,2.09,2.09,0,0,0,2.14-2.18c0-1.33-1-1.87-1.87-2.22l-1.24-.53a3.66,3.66,0,0,1-2.65-3.29,3.51,3.51,0,0,1,3.8-3.43,3.84,3.84,0,0,1,2.61.88,4.41,4.41,0,0,1,1,1.3Z"/><path class="cls-1" d="M154.42,117.39V128.5h-2V117.39h-3v-1.87h8v1.87Z"/><path class="cls-1" d="M161,115.52v7.83a4.5,4.5,0,0,0,.41,2.23,2.84,2.84,0,0,0,4.83,0,4.5,4.5,0,0,0,.41-2.23v-7.83h2v8.35a4.78,4.78,0,0,1-1.21,3.37,5,5,0,0,1-7.2,0,4.83,4.83,0,0,1-1.21-3.37v-8.35Z"/><path class="cls-1" d="M174.42,115.52a7.57,7.57,0,0,1,4.83,1.26,6.46,6.46,0,0,1,2.49,5.24,6.21,6.21,0,0,1-2.61,5.24,7.45,7.45,0,0,1-4.75,1.24h-2.69v-13Zm-.74,11.12h.85a5.61,5.61,0,0,0,3.45-.92,4.57,4.57,0,0,0,1.77-3.7,4.65,4.65,0,0,0-1.75-3.74,5.8,5.8,0,0,0-3.47-.89h-.85Z"/><path class="cls-1" d="M191.3,117.39h-5.18v3.29h5v1.87h-5v4.09h5.18v1.86h-7.16v-13h7.16Z"/><path class="cls-1" d="M193.77,128.5V114.64l9.43,9.87v-9h2V129.3l-9.42-9.87v9.07Z"/><path class="cls-1" d="M211.81,117.39V128.5h-2V117.39h-3v-1.87h7.95v1.87Z"/><path class="cls-1" d="M222.05,118.4a2,2,0,0,0-2-1.28c-1.2,0-1.83.71-1.83,1.55,0,.39.14,1.07,1.41,1.58l1.3.53c2.39,1,3.06,2.33,3.06,3.81a4,4,0,0,1-4.19,4.17,3.82,3.82,0,0,1-3.06-1.31,4.21,4.21,0,0,1-1.09-2.53l2-.43a2.81,2.81,0,0,0,.54,1.66,2.05,2.05,0,0,0,1.7.78,2.09,2.09,0,0,0,2.14-2.18c0-1.33-1-1.87-1.87-2.22l-1.25-.53a3.66,3.66,0,0,1-2.64-3.29,3.51,3.51,0,0,1,3.79-3.43,3.82,3.82,0,0,1,2.61.88,4.6,4.6,0,0,1,1,1.3Z"/><path class="cls-1" d="M54.89,135.8a5.86,5.86,0,0,1,3.43.76,3.64,3.64,0,0,1,1.54,3.06A3.56,3.56,0,0,1,57,143.24L61,148.79H58.63l-3.72-5.32h-.35v5.32h-2v-13Zm-.33,6h.62c.55,0,2.77-.06,2.77-2.12,0-1.83-1.74-2-2.71-2h-.68Z"/><path class="cls-1" d="M70,137.67H64.86V141h5v1.87h-5v4.09H70v1.87H62.88v-13H70Z"/><path class="cls-1" d="M80.15,145.66H74.6l-1.42,3.13H71L77.5,135l6.15,13.75H81.51Zm-.8-1.87-1.93-4.4-2,4.4Z"/><path class="cls-1" d="M87.18,135.8v11.12H91v1.87h-5.8v-13Z"/><path class="cls-1" d="M94.75,135.8v11.12h3.82v1.87h-5.8v-13Z"/><path class="cls-1" d="M103.05,143.18l-4.27-7.38H101l3,5.2,3-5.2h2.26L105,143.18v5.61h-2Z"/><path class="cls-1" d="M118.8,137.67v11.12h-2V137.67h-3V135.8h7.94v1.87Z"/><path class="cls-1" d="M125.42,140.94H131V135.8h2v13h-2v-6h-5.57v6h-2v-13h2Z"/><path class="cls-1" d="M138,135.8v13h-2v-13Z"/><path class="cls-1" d="M141,148.79V134.93l9.43,9.87v-9h2v13.79L143,139.72v9.07Z"/><path class="cls-1" d="M157.42,141l5-5.18h2.61l-5.86,5.88,5.9,7.11h-2.65L157.81,143l-.39.39v5.37h-2v-13h2Z"/><path class="cls-1" d="M60.21,165.94H54.66l-1.42,3.14H51.09l6.47-13.75,6.15,13.75H61.57Zm-.8-1.87-1.93-4.4-2,4.4Z"/><path class="cls-1" d="M67.22,156.09c1.67,0,2.72.21,3.58,1a3.33,3.33,0,0,1,1,2.57,2.85,2.85,0,0,1-.39,1.54,2.07,2.07,0,0,1-1,.89,3.63,3.63,0,0,1,1.67.94,3.38,3.38,0,0,1,.86,2.43,3.14,3.14,0,0,1-.86,2.34,5,5,0,0,1-3.64,1.27H65.25v-13Zm0,5.59h.6a2.29,2.29,0,0,0,1.62-.51,2,2,0,0,0,.5-1.48,1.61,1.61,0,0,0-.47-1.25,2.14,2.14,0,0,0-1.57-.48h-.68Zm0,5.53h1.2a3.43,3.43,0,0,0,2-.51,1.86,1.86,0,0,0,.64-1.44,1.93,1.93,0,0,0-.52-1.36,2.86,2.86,0,0,0-2-.59H67.24Z"/><path class="cls-1" d="M88.29,162.59a6.76,6.76,0,1,1-6.76-6.74A6.59,6.59,0,0,1,88.29,162.59Zm-2,0a4.77,4.77,0,1,0-4.77,4.91A4.65,4.65,0,0,0,86.3,162.59Z"/><path class="cls-1" d="M92.67,156.09v7.83a4.5,4.5,0,0,0,.41,2.23,2.84,2.84,0,0,0,4.83,0,4.49,4.49,0,0,0,.4-2.23v-7.83h2v8.35a4.78,4.78,0,0,1-1.21,3.37,5,5,0,0,1-7.2,0,4.83,4.83,0,0,1-1.21-3.37v-8.35Z"/><path class="cls-1" d="M106.92,158v11.12h-2V158h-3v-1.87h7.94V158Z"/><path class="cls-1" d="M118.7,163.47l-4.26-7.38h2.26l3,5.2,3-5.2H125l-4.26,7.38v5.61h-2Z"/><path class="cls-1" d="M139.31,162.59a6.76,6.76,0,1,1-6.76-6.74A6.59,6.59,0,0,1,139.31,162.59Zm-2,0a4.77,4.77,0,1,0-4.77,4.91A4.65,4.65,0,0,0,137.32,162.59Z"/><path class="cls-1" d="M143.69,156.09v7.83a4.5,4.5,0,0,0,.41,2.23,2.84,2.84,0,0,0,4.83,0,4.49,4.49,0,0,0,.4-2.23v-7.83h2v8.35a4.78,4.78,0,0,1-1.21,3.37,5,5,0,0,1-7.2,0,4.83,4.83,0,0,1-1.21-3.37v-8.35Z"/><path class="cls-1" d="M156.66,156.09a5.81,5.81,0,0,1,3.43.76,3.76,3.76,0,0,1-1.35,6.68l4,5.55H160.4l-3.72-5.32h-.35v5.32h-2v-13Zm-.33,6H157c.55,0,2.77-.06,2.77-2.13,0-1.83-1.74-2-2.71-2h-.68Z"/></svg>