<svg id="copy-rotate-11" xmlns="http://www.w3.org/2000/svg" viewBox="0 0 300 250"><defs><style>.cls-1{fill:#38a7de;}</style></defs><title>copy-rotate-11</title><path class="cls-1" d="M58.27,179.7a1.92,1.92,0,0,0-.57-.8,2,2,0,0,0-1.37-.46A1.57,1.57,0,0,0,54.55,180c0,.38.13,1,1.37,1.54l1.27.52c2.34.95,3,2.27,3,3.72a3.9,3.9,0,0,1-4.08,4.06,3.74,3.74,0,0,1-3-1.27A4.13,4.13,0,0,1,52,186.06l1.92-.42a2.77,2.77,0,0,0,.53,1.62,2,2,0,0,0,1.65.76,2,2,0,0,0,2.09-2.13c0-1.29-1-1.82-1.82-2.16l-1.22-.52A3.57,3.57,0,0,1,52.61,180a3.42,3.42,0,0,1,3.71-3.34,3.75,3.75,0,0,1,2.54.85,4.43,4.43,0,0,1,1,1.28Z"/><path class="cls-1" d="M69.6,178.71H64.54v3.21h4.9v1.82h-4.9v4H69.6v1.83h-7V176.89h7Z"/><path class="cls-1" d="M74.37,176.89a5.69,5.69,0,0,1,3.34.74,3.52,3.52,0,0,1,1.5,3,3.47,3.47,0,0,1-2.81,3.53l3.95,5.42H78l-3.63-5.19H74v5.19H72.1V176.89ZM74,182.7h.61c.53,0,2.7-.06,2.7-2.07,0-1.79-1.69-2-2.64-2H74Z"/><path class="cls-1" d="M82.9,176.89l3.53,8.83L90,176.89h2.09l-5.62,13.48-5.62-13.48Z"/><path class="cls-1" d="M95.59,176.89v12.67H93.65V176.89Z"/><path class="cls-1" d="M108,179.85a5,5,0,0,0-3.44-1.41,4.79,4.79,0,0,0,0,9.58,5,5,0,0,0,3.42-1.46v2.29a6.9,6.9,0,0,1-3.47,1,6.38,6.38,0,0,1-4.49-1.74,6.22,6.22,0,0,1-2-4.79,6.65,6.65,0,0,1,2-5,6.29,6.29,0,0,1,4.58-1.65,6,6,0,0,1,3.38.91Z"/><path class="cls-1" d="M117.4,178.71h-5.06v3.21h4.91v1.82h-4.91v4h5.06v1.83h-7V176.89h7Z"/><path class="cls-1" d="M119.45,180.34c0-.43,0-.59,0-.64a3,3,0,0,1,.86-2.24,3.1,3.1,0,0,1,2.22-.8,3.25,3.25,0,0,1,2.3.83,2.85,2.85,0,0,1,.82,2.13,2.7,2.7,0,0,1-1.12,2.34,6.36,6.36,0,0,1-1.33.66l-.57.23a2.31,2.31,0,0,0-.76.42,1,1,0,0,0-.29.68,1,1,0,0,0,.32.74.84.84,0,0,0,.57.19.92.92,0,0,0,.73-.28,1.54,1.54,0,0,0,.3-1h1.86a3.24,3.24,0,0,1-.83,2.21,2.93,2.93,0,0,1-2.07.79,2.9,2.9,0,0,1-2-.77,2.77,2.77,0,0,1-.78-2,2.36,2.36,0,0,1,.61-1.63,4.44,4.44,0,0,1,1.65-1,4.28,4.28,0,0,0,1.39-.67,1.32,1.32,0,0,0,.09-1.84,1.25,1.25,0,0,0-.87-.32,1.21,1.21,0,0,0-.87.34,1.47,1.47,0,0,0-.33,1,3.09,3.09,0,0,0,.08.62Zm3.08,7.19a1.14,1.14,0,1,1-1.14,1.13A1.14,1.14,0,0,1,122.53,187.53Z"/></svg>