<svg id="cta" xmlns="http://www.w3.org/2000/svg" viewBox="0 0 300 250"><defs><style>.cls-1{fill:#fdec0a;}.cls-2{fill:#333;}</style></defs><title>Artboard 1 copy 21</title><rect class="cls-1" x="151.48" y="215.65" width="131.21" height="16.44"/><path class="cls-2" d="M164.28,224.21h-4.62v4.9h-1.43V218h6.82v1.2h-5.39V223h4.62Z"/><path class="cls-2" d="M167.62,220.86h4.22v7h2.69v1.22h-6.91v-1.22h2.8v-5.8h-2.8Zm2.62-2.17a.87.87,0,0,1,.21-.59.8.8,0,0,1,.64-.24.79.79,0,0,1,.63.24.87.87,0,0,1,.21.59.84.84,0,0,1-.21.58.82.82,0,0,1-.63.22.83.83,0,0,1-.64-.22A.84.84,0,0,1,170.24,218.69Z"/><path class="cls-2" d="M178,220.86l.1,1.22a3.18,3.18,0,0,1,1.1-1,2.92,2.92,0,0,1,1.47-.37,3.7,3.7,0,0,1,1.18.18,2.23,2.23,0,0,1,.9.57,2.53,2.53,0,0,1,.57,1,4.29,4.29,0,0,1,.21,1.42v5.24h-1.41V223.9A2.86,2.86,0,0,0,182,223a1.52,1.52,0,0,0-.36-.62A1.43,1.43,0,0,0,181,222a2.69,2.69,0,0,0-.79-.11,2.19,2.19,0,0,0-1.25.36,2.65,2.65,0,0,0-.86.93v5.92h-1.41v-8.25Z"/><path class="cls-2" d="M185.72,224.92a6.08,6.08,0,0,1,.23-1.7,4.06,4.06,0,0,1,.67-1.33,3,3,0,0,1,1-.87,2.9,2.9,0,0,1,1.36-.31,3.16,3.16,0,0,1,1.29.24,2.73,2.73,0,0,1,1,.73V217.4h1.41v11.71h-1.29l-.06-.87a2.69,2.69,0,0,1-1,.76,3.07,3.07,0,0,1-1.33.26,2.81,2.81,0,0,1-1.36-.32,3,3,0,0,1-1-.88,4,4,0,0,1-.66-1.33,5.48,5.48,0,0,1-.24-1.65Zm1.41.16a4.69,4.69,0,0,0,.13,1.14,3,3,0,0,0,.4.95,2,2,0,0,0,.69.66,2,2,0,0,0,1,.24A2.22,2.22,0,0,0,190,228a1.64,1.64,0,0,0,.52-.24,1.86,1.86,0,0,0,.42-.37,2.76,2.76,0,0,0,.32-.49v-3.82a2.28,2.28,0,0,0-.74-.83,1.94,1.94,0,0,0-1.16-.33,1.94,1.94,0,0,0-1.71.91,3,3,0,0,0-.4,1,4.71,4.71,0,0,0-.13,1.15Z"/><path class="cls-2" d="M211.8,224.2a9.71,9.71,0,0,1-.1,1.2,7.43,7.43,0,0,1-.3,1.17,4.64,4.64,0,0,1-.51,1.05,3.78,3.78,0,0,1-.73.86,3.41,3.41,0,0,1-1,.57,3.77,3.77,0,0,1-2.48,0,3.41,3.41,0,0,1-1-.57,4.1,4.1,0,0,1-.74-.86,4.94,4.94,0,0,1-.51-1.06,6.39,6.39,0,0,1-.31-1.16,8.09,8.09,0,0,1-.1-1.2v-1.27a8.32,8.32,0,0,1,.1-1.2,5.91,5.91,0,0,1,.3-1.17,4.86,4.86,0,0,1,.51-1.05,3.88,3.88,0,0,1,.74-.87,3.38,3.38,0,0,1,1-.58,3.8,3.8,0,0,1,2.49,0,3.3,3.3,0,0,1,1,.58,3.62,3.62,0,0,1,.74.86,6.37,6.37,0,0,1,.51,1.05,7.55,7.55,0,0,1,.3,1.18,10,10,0,0,1,.1,1.2Zm-1.4-1.28a8,8,0,0,0-.05-.83,4.9,4.9,0,0,0-.16-.85,4.32,4.32,0,0,0-.29-.81,2.33,2.33,0,0,0-.46-.68,2,2,0,0,0-.65-.47,2.11,2.11,0,0,0-.87-.17,2,2,0,0,0-.86.18,2,2,0,0,0-.65.47,2.51,2.51,0,0,0-.45.68,4.25,4.25,0,0,0-.3.8,8.65,8.65,0,0,0-.16.86,8,8,0,0,0-.05.82v1.28a8,8,0,0,0,.05.82,6.23,6.23,0,0,0,.17.86,4.59,4.59,0,0,0,.29.81,3.07,3.07,0,0,0,.46.69,2.21,2.21,0,0,0,.65.47,2.31,2.31,0,0,0,1.74,0,2.21,2.21,0,0,0,.65-.47,2.87,2.87,0,0,0,.45-.68,4.59,4.59,0,0,0,.29-.81,5,5,0,0,0,.15-.86,8.19,8.19,0,0,0,.05-.83Z"/><path class="cls-2" d="M219.22,228a2.81,2.81,0,0,1-1,.95,2.91,2.91,0,0,1-1.43.34,3.13,3.13,0,0,1-1.17-.2,2.14,2.14,0,0,1-.91-.63,3,3,0,0,1-.57-1.08,5.31,5.31,0,0,1-.2-1.59v-4.9h1.41v4.92a4.89,4.89,0,0,0,.1,1.11,1.8,1.8,0,0,0,.33.71,1.14,1.14,0,0,0,.52.37,2.17,2.17,0,0,0,.71.1,2.43,2.43,0,0,0,1.39-.35,2.07,2.07,0,0,0,.79-.94v-5.92h1.42v8.25h-1.28Z"/><path class="cls-2" d="M226.51,218.86v2h3.14V222h-3.14v4.48a2.29,2.29,0,0,0,.12.8,1.29,1.29,0,0,0,.33.5,1.33,1.33,0,0,0,.5.26,2.21,2.21,0,0,0,.59.08l.47,0L229,228l.43-.08.33-.07.2,1a2.5,2.5,0,0,1-.43.19,3.89,3.89,0,0,1-.54.13,6,6,0,0,1-.63.09q-.33,0-.66,0a3.42,3.42,0,0,1-1-.15,2.2,2.2,0,0,1-.83-.5,2.41,2.41,0,0,1-.55-.88,3.78,3.78,0,0,1-.2-1.3V222h-2.17v-1.09h2.17v-2Z"/><path class="cls-2" d="M243.3,218l1.81,5.55,1.95-5.55h1.76v11.1h-1.37v-4.43l.11-4.64-2.05,6h-.81l-1.88-5.82.11,4.48v4.43h-1.37V218Z"/><path class="cls-2" d="M250.65,224.91a5.2,5.2,0,0,1,.26-1.66,4,4,0,0,1,.75-1.33,3.38,3.38,0,0,1,1.18-.89,3.57,3.57,0,0,1,1.56-.32A3.61,3.61,0,0,1,256,221a3.51,3.51,0,0,1,1.19.89,4,4,0,0,1,.74,1.33,5.2,5.2,0,0,1,.26,1.66v.17a5.19,5.19,0,0,1-.26,1.65,4,4,0,0,1-.74,1.33,3.42,3.42,0,0,1-1.18.88,4,4,0,0,1-3.14,0,3.24,3.24,0,0,1-1.18-.88,4,4,0,0,1-.75-1.33,5.19,5.19,0,0,1-.26-1.65Zm1.42.17a4.44,4.44,0,0,0,.14,1.16,3,3,0,0,0,.44,1,2.17,2.17,0,0,0,.74.67,2.29,2.29,0,0,0,2,0,2.23,2.23,0,0,0,.73-.67,2.78,2.78,0,0,0,.44-1,4.45,4.45,0,0,0,.15-1.16v-.17a4.45,4.45,0,0,0-.15-1.16,3.19,3.19,0,0,0-.44-1,2.33,2.33,0,0,0-.73-.67,2.15,2.15,0,0,0-1-.24,2.08,2.08,0,0,0-1,.24,2.23,2.23,0,0,0-.73.67,3,3,0,0,0-.44,1,4.44,4.44,0,0,0-.14,1.16Z"/><path class="cls-2" d="M265.75,220.71h.42l.4,0a3.37,3.37,0,0,1,.36.06l.27.08-.19,1.38c-.27-.06-.53-.1-.78-.13a6.51,6.51,0,0,0-.77,0,2.65,2.65,0,0,0-1.61.45,2.57,2.57,0,0,0-.9,1.26v5.29h-1.42v-8.25h1.34l.07,1.31a3.74,3.74,0,0,1,1.21-1.07A3.24,3.24,0,0,1,265.75,220.71Z"/><path class="cls-2" d="M273.29,229.26a4.34,4.34,0,0,1-1.6-.29,3.62,3.62,0,0,1-1.25-.84,3.9,3.9,0,0,1-.81-1.26,4.38,4.38,0,0,1-.29-1.6V225a4.75,4.75,0,0,1,.32-1.78,4.21,4.21,0,0,1,.85-1.34,3.79,3.79,0,0,1,1.21-.83,3.35,3.35,0,0,1,1.38-.29,3.59,3.59,0,0,1,1.56.31,3,3,0,0,1,1.11.85,3.46,3.46,0,0,1,.66,1.28,5.55,5.55,0,0,1,.22,1.61v.63h-5.9a3.34,3.34,0,0,0,.22,1.06,2.62,2.62,0,0,0,.54.86,2.29,2.29,0,0,0,.81.59,2.51,2.51,0,0,0,1,.21,2.88,2.88,0,0,0,1.34-.3,3,3,0,0,0,1-.81l.86.67a3.13,3.13,0,0,1-.51.6,3.41,3.41,0,0,1-.72.5,3.76,3.76,0,0,1-.91.36A4.33,4.33,0,0,1,273.29,229.26Zm-.19-7.39a2.05,2.05,0,0,0-1.49.61,2.52,2.52,0,0,0-.52.74,3.63,3.63,0,0,0-.29,1h4.44v-.11a3.32,3.32,0,0,0-.16-.81,2.44,2.44,0,0,0-.39-.73,1.9,1.9,0,0,0-1.59-.71Z"/></svg>