<svg id="Header" xmlns="http://www.w3.org/2000/svg" viewBox="0 0 300 250"><defs><style>.cls-1{fill:#231f20;}</style></defs><title>Artboard 1 copy 21</title><path class="cls-1" d="M18.91,222.38a.59.59,0,0,0-.23-.51,3,3,0,0,0-.85-.38,5.53,5.53,0,0,1-1-.39,1.57,1.57,0,0,1-1-1.41,1.34,1.34,0,0,1,.26-.82,1.64,1.64,0,0,1,.74-.56,2.77,2.77,0,0,1,1.1-.21,2.67,2.67,0,0,1,1.08.22,1.7,1.7,0,0,1,.74.63,1.6,1.6,0,0,1,.27.91H18.91a.79.79,0,0,0-.24-.61A1.05,1.05,0,0,0,18,219a1.09,1.09,0,0,0-.67.18.57.57,0,0,0-.24.48.53.53,0,0,0,.28.46,3.08,3.08,0,0,0,.82.35,3.54,3.54,0,0,1,1.46.75,1.52,1.52,0,0,1,.46,1.11,1.38,1.38,0,0,1-.56,1.16A2.48,2.48,0,0,1,18,224a2.91,2.91,0,0,1-1.19-.24,1.82,1.82,0,0,1-.82-.66,1.68,1.68,0,0,1-.29-1H16.9c0,.63.37.94,1.12.94a1.15,1.15,0,0,0,.66-.17A.56.56,0,0,0,18.91,222.38Z"/><path class="cls-1" d="M26.34,219.13H24.59v4.74H23.42v-4.74H21.7v-.95h4.64Z"/><path class="cls-1" d="M32.48,218.18v3.75a1.9,1.9,0,0,1-.58,1.47,2.22,2.22,0,0,1-1.6.55,2.29,2.29,0,0,1-1.58-.53,1.9,1.9,0,0,1-.6-1.45v-3.79H29.3v3.76a1.11,1.11,0,0,0,.26.81,1,1,0,0,0,.74.26.92.92,0,0,0,1-1v-3.79Z"/><path class="cls-1" d="M34.62,223.87v-5.69h1.75a2.59,2.59,0,0,1,1.34.34,2.27,2.27,0,0,1,.93,1A3,3,0,0,1,39,220.9v.26a2.94,2.94,0,0,1-.33,1.41,2.22,2.22,0,0,1-.92,1,2.6,2.6,0,0,1-1.34.35Zm1.17-4.74v3.8h.57a1.27,1.27,0,0,0,1-.45,2,2,0,0,0,.37-1.29v-.3a2,2,0,0,0-.36-1.31,1.27,1.27,0,0,0-1.05-.45Z"/><path class="cls-1" d="M44.42,221.4H42.17v1.53h2.64v.94H41v-5.69h3.8v.95H42.17v1.36h2.25Z"/><path class="cls-1" d="M51.3,223.87H50.13l-2.29-3.74v3.74H46.67v-5.69h1.17l2.29,3.75v-3.75H51.3Z"/><path class="cls-1" d="M57.78,219.13H56v4.74H54.86v-4.74H53.14v-.95h4.64Z"/><path class="cls-1" d="M67.42,223.87H66.25v-2.44H64v2.44H62.79v-5.69H64v2.31h2.29v-2.31h1.17Z"/><path class="cls-1" d="M73.92,218.18v3.75a1.9,1.9,0,0,1-.58,1.47,2.22,2.22,0,0,1-1.6.55,2.29,2.29,0,0,1-1.58-.53,1.9,1.9,0,0,1-.6-1.45v-3.79h1.18v3.76a1.07,1.07,0,0,0,.26.81,1,1,0,0,0,.74.26.92.92,0,0,0,1-1v-3.79Z"/><path class="cls-1" d="M80.34,219.13H78.6v4.74H77.43v-4.74H75.71v-.95h4.63Z"/><path class="cls-1" d="M90,221.15a3.46,3.46,0,0,1-.3,1.48,2.24,2.24,0,0,1-.85,1,2.35,2.35,0,0,1-1.27.35,2.42,2.42,0,0,1-1.26-.34,2.26,2.26,0,0,1-.86-1,3.36,3.36,0,0,1-.31-1.45v-.29a3.38,3.38,0,0,1,.3-1.47,2.32,2.32,0,0,1,.86-1,2.52,2.52,0,0,1,2.53,0,2.24,2.24,0,0,1,.85,1A3.25,3.25,0,0,1,90,220.9Zm-1.19-.25a2.42,2.42,0,0,0-.32-1.36,1.13,1.13,0,0,0-1.83,0,2.4,2.4,0,0,0-.32,1.35v.27a2.49,2.49,0,0,0,.32,1.36,1.12,1.12,0,0,0,1.83,0,2.4,2.4,0,0,0,.32-1.35Z"/><path class="cls-1" d="M93.22,221.86v2H92.05v-5.69h2.22a2.54,2.54,0,0,1,1.13.24,1.72,1.72,0,0,1,.75.66,1.91,1.91,0,0,1,.26,1,1.63,1.63,0,0,1-.57,1.32,2.41,2.41,0,0,1-1.59.48Zm0-.94h1a1.06,1.06,0,0,0,.71-.22.82.82,0,0,0,.24-.63.93.93,0,0,0-.24-.67.92.92,0,0,0-.68-.27H93.22Z"/><path class="cls-1" d="M99.64,223.87H98.46v-5.69h1.18Z"/><path class="cls-1" d="M106.52,223.87h-1.17l-2.28-3.74v3.74H101.9v-5.69h1.17l2.28,3.75v-3.75h1.17Z"/><path class="cls-1" d="M110,223.87H108.8v-5.69H110Z"/><path class="cls-1" d="M116.9,221.15a3.46,3.46,0,0,1-.3,1.48,2.22,2.22,0,0,1-.84,1,2.38,2.38,0,0,1-1.27.35,2.42,2.42,0,0,1-1.26-.34,2.26,2.26,0,0,1-.86-1,3.22,3.22,0,0,1-.31-1.45v-.29a3.38,3.38,0,0,1,.3-1.47,2.26,2.26,0,0,1,.86-1,2.5,2.5,0,0,1,2.52,0,2.26,2.26,0,0,1,.86,1,3.38,3.38,0,0,1,.3,1.47Zm-1.19-.25a2.34,2.34,0,0,0-.32-1.36,1,1,0,0,0-.91-.47,1.06,1.06,0,0,0-.91.46,2.4,2.4,0,0,0-.32,1.35v.27a2.4,2.4,0,0,0,.32,1.36,1.11,1.11,0,0,0,1.82,0,2.4,2.4,0,0,0,.32-1.35Z"/><path class="cls-1" d="M123.55,223.87h-1.17l-2.28-3.74v3.74h-1.17v-5.69h1.17l2.29,3.75v-3.75h1.16Z"/><path class="cls-1" d="M17.13,231.46v2H16v-5.69h2.22a2.54,2.54,0,0,1,1.13.24,1.64,1.64,0,0,1,.74.66,1.83,1.83,0,0,1,.27,1,1.61,1.61,0,0,1-.58,1.32,2.39,2.39,0,0,1-1.58.48Zm0-.94h1.05a1.08,1.08,0,0,0,.71-.22.82.82,0,0,0,.24-.63.93.93,0,0,0-.24-.67.88.88,0,0,0-.68-.27H17.13Z"/><path class="cls-1" d="M25.51,232.3H23.45l-.39,1.17H21.82l2.11-5.69H25l2.13,5.69H25.9Zm-1.74-1h1.42l-.71-2.13Z"/><path class="cls-1" d="M33.48,233.47H32.31L30,229.73v3.74H28.85v-5.69H30l2.28,3.75v-3.75h1.17Z"/><path class="cls-1" d="M39.1,231H36.85v1.53h2.64v.94H35.68v-5.69h3.8v.95H36.85v1.36H39.1Z"/><path class="cls-1" d="M42.53,232.53H45v.94H41.36v-5.69h1.17Z"/><path class="cls-1" d="M53.45,231.14H51.2v2.33H50v-5.69h3.7v.95H51.2v1.47h2.25Z"/><path class="cls-1" d="M57.7,231.39h-.94v2.08H55.59v-5.69H57.7a2.4,2.4,0,0,1,1.56.45,1.56,1.56,0,0,1,.55,1.27,1.73,1.73,0,0,1-.26,1,1.64,1.64,0,0,1-.76.62L60,233.41v.06H58.76Zm-.94-.95h1a1,1,0,0,0,.68-.23.8.8,0,0,0,.24-.62.85.85,0,0,0-.22-.63,1,1,0,0,0-.71-.23h-.94Z"/><path class="cls-1" d="M66.54,230.75a3.46,3.46,0,0,1-.29,1.48,2.24,2.24,0,0,1-.85,1,2.35,2.35,0,0,1-1.27.35,2.42,2.42,0,0,1-1.26-.34,2.26,2.26,0,0,1-.86-1,3.4,3.4,0,0,1-.31-1.46v-.28A3.46,3.46,0,0,1,62,229a2.35,2.35,0,0,1,.86-1,2.52,2.52,0,0,1,2.53,0,2.33,2.33,0,0,1,.85,1,3.46,3.46,0,0,1,.3,1.48Zm-1.18-.25a2.42,2.42,0,0,0-.32-1.36,1.06,1.06,0,0,0-.92-.47,1,1,0,0,0-.91.46,2.4,2.4,0,0,0-.32,1.35v.27a2.37,2.37,0,0,0,.32,1.35,1,1,0,0,0,.92.49,1,1,0,0,0,.91-.47,2.49,2.49,0,0,0,.32-1.35Z"/><path class="cls-1" d="M70.1,227.78l1.46,4.13L73,227.78h1.54v5.69H73.38v-1.56l.12-2.68L72,233.47h-.8l-1.53-4.24.11,2.68v1.56H68.57v-5.69Z"/><path class="cls-1" d="M84.55,233.47H83.38l-2.28-3.74v3.74H79.92v-5.69H81.1l2.28,3.75v-3.75h1.17Z"/><path class="cls-1" d="M90,232.3H87.9l-.39,1.17H86.27l2.12-5.69h1.08l2.13,5.69H90.35Zm-1.74-1h1.42l-.71-2.13Z"/><path class="cls-1" d="M97.59,228.73H95.85v4.74H94.67v-4.74H93v-.95h4.63Z"/><path class="cls-1" d="M100.68,233.47H99.51v-5.69h1.17Z"/><path class="cls-1" d="M105,232.06l1.29-4.28h1.31l-2,5.69h-1.22l-2-5.69h1.3Z"/><path class="cls-1" d="M112.77,231h-2.25v1.53h2.64v.94h-3.81v-5.69h3.8v.95h-2.63v1.36h2.25Z"/><path class="cls-1" d="M118,232a.59.59,0,0,0-.23-.51,3,3,0,0,0-.85-.38,5.89,5.89,0,0,1-1-.39,1.57,1.57,0,0,1-1-1.41,1.38,1.38,0,0,1,.26-.82,1.62,1.62,0,0,1,.75-.56,2.68,2.68,0,0,1,1.09-.21,2.63,2.63,0,0,1,1.08.22,1.7,1.7,0,0,1,.74.63,1.57,1.57,0,0,1,.27.91H118a.8.8,0,0,0-.25-.61,1,1,0,0,0-.69-.21,1.09,1.09,0,0,0-.67.18.57.57,0,0,0-.24.48.53.53,0,0,0,.28.46,3.08,3.08,0,0,0,.82.35,3.47,3.47,0,0,1,1.46.75,1.48,1.48,0,0,1,.46,1.11,1.38,1.38,0,0,1-.56,1.16,2.43,2.43,0,0,1-1.5.42,2.92,2.92,0,0,1-1.2-.24,1.88,1.88,0,0,1-.82-.66,1.68,1.68,0,0,1-.29-1H116c0,.63.38.94,1.13.94a1.14,1.14,0,0,0,.65-.17A.56.56,0,0,0,118,232Z"/></svg>