<svg id="logo" xmlns="http://www.w3.org/2000/svg" xmlns:xlink="http://www.w3.org/1999/xlink" viewBox="0 0 300 250"><defs><style>.cls-1{fill:url(#linear-gradient);}.cls-2{clip-path:url(#clip-path);}.cls-3{fill:none;}.cls-4{fill:url(#radial-gradient);}.cls-5{clip-path:url(#clip-path-2);}.cls-6{fill:url(#linear-gradient-2);}.cls-7{clip-path:url(#clip-path-3);}.cls-8{fill:url(#linear-gradient-3);}.cls-9{clip-path:url(#clip-path-4);}.cls-10{fill:url(#linear-gradient-4);}.cls-11{clip-path:url(#clip-path-5);}.cls-12{mask:url(#mask);}.cls-13{fill:url(#linear-gradient-5);}.cls-14{clip-path:url(#clip-path-6);}.cls-15{fill:url(#radial-gradient-2);}.cls-16{mask:url(#mask-2);}.cls-17{fill:url(#radial-gradient-3);}.cls-18{clip-path:url(#clip-path-8);}.cls-19{mask:url(#mask-3);}.cls-20{fill:url(#linear-gradient-6);}.cls-21{clip-path:url(#clip-path-9);}.cls-22{fill:url(#linear-gradient-7);}.cls-23{mask:url(#mask-4);}.cls-24{fill:url(#linear-gradient-8);}.cls-25{clip-path:url(#clip-path-11);}.cls-26{fill:#231f20;}</style><linearGradient id="linear-gradient" x1="-5023.66" y1="-198.64" x2="-5023.36" y2="-198.64" gradientTransform="translate(-669917.39 -17998.95) rotate(180) scale(133.37 90.87)" gradientUnits="userSpaceOnUse"><stop offset="0" stop-color="#fff"/><stop offset="1" stop-color="#252525"/></linearGradient><clipPath id="clip-path"><rect class="cls-3" x="12.39" y="12.17" width="59.05" height="63.11" transform="translate(-0.5 0.49) rotate(-0.66)"/></clipPath><radialGradient id="radial-gradient" cx="-4976.72" cy="-260.07" r="0.61" gradientTransform="matrix(0, 62.42, -62.42, 0, -16192.7, 310653.23)" gradientUnits="userSpaceOnUse"><stop offset="0"/><stop offset="1" stop-color="#fff"/></radialGradient><clipPath id="clip-path-2"><polygon class="cls-3" points="58.18 100.85 95.28 26.31 25.64 -13.4 -11.46 61.13 58.18 100.85"/></clipPath><linearGradient id="linear-gradient-2" x1="-4973.77" y1="-155.91" x2="-4973.47" y2="-155.91" gradientTransform="matrix(60.89, -122.31, 114.27, 65.17, 320678.98, -598121.87)" gradientUnits="userSpaceOnUse"><stop offset="0" stop-color="#fff"/><stop offset="1"/></linearGradient><clipPath id="clip-path-3"><polygon class="cls-3" points="63.15 93.44 111.55 34.62 53.19 -14.16 4.79 44.66 63.15 93.44"/></clipPath><linearGradient id="linear-gradient-3" x1="-4968.45" y1="-160.61" x2="-4968.15" y2="-160.61" gradientTransform="matrix(86.35, -104.97, 104.14, 87.04, 445809.09, -507486.01)" xlink:href="#linear-gradient-2"/><clipPath id="clip-path-4"><polygon class="cls-3" points="17.28 74.94 17.28 74.94 17.28 74.94 17.28 74.94 80.57 74.94 85.09 66.78 31.3 66.77 48.81 36.74 44.17 28.73 17.28 74.94"/></clipPath><linearGradient id="linear-gradient-4" x1="-4965.3" y1="-208.53" x2="-4965" y2="-208.53" gradientTransform="matrix(117.61, 91.03, -133.61, 80.13, 556144.87, 468747.89)" gradientUnits="userSpaceOnUse"><stop offset="0" stop-color="#086a95"/><stop offset="1" stop-color="#1390c9"/></linearGradient><clipPath id="clip-path-5"><polygon class="cls-3" points="17.28 74.94 17.28 74.94 80.57 74.94 85.09 66.78 31.3 66.77 48.81 36.74 44.17 28.73 17.28 74.94"/></clipPath><mask id="mask" x="17.28" y="28.73" width="67.82" height="46.21" maskUnits="userSpaceOnUse"><rect class="cls-1" x="17.28" y="28.73" width="67.82" height="46.21"/></mask><linearGradient id="linear-gradient-5" x1="-5023.66" y1="-198.64" x2="-5023.36" y2="-198.64" gradientTransform="translate(-669917.39 -17998.95) rotate(180) scale(133.37 90.87)" gradientUnits="userSpaceOnUse"><stop offset="0" stop-color="#bd74b0"/><stop offset="1" stop-color="#1390c9"/></linearGradient><clipPath id="clip-path-6"><polygon class="cls-3" points="44.2 12.51 12.75 67.04 17.28 74.94 44.14 28.78 46.04 31.98 46.04 31.98 61.59 58.64 71.08 58.65 50.54 23.4 48.95 20.59 53.58 12.51 44.2 12.51"/></clipPath><radialGradient id="radial-gradient-2" cx="-4987.75" cy="-130.98" r="0.61" gradientTransform="matrix(65.08, 0, 0, 72.11, 324605.47, 9472.53)" gradientUnits="userSpaceOnUse"><stop offset="0" stop-color="#62b5e5"/><stop offset="0.42" stop-color="#7da5d7"/><stop offset="1" stop-color="#eb85b6"/></radialGradient><mask id="mask-2" x="11.28" y="11.14" width="61.26" height="65.18" maskUnits="userSpaceOnUse"><g class="cls-2"><rect class="cls-4" x="11.65" y="11.48" width="60.52" height="64.48" transform="translate(-0.5 0.49) rotate(-0.66)"/></g></mask><radialGradient id="radial-gradient-3" cx="-4976.72" cy="-260.07" r="0.61" gradientTransform="matrix(0, 62.42, -62.42, 0, -16192.69, 310653.24)" gradientUnits="userSpaceOnUse"><stop offset="0" stop-color="#eb84b5"/><stop offset="1" stop-color="#3794c7"/></radialGradient><clipPath id="clip-path-8"><polygon class="cls-3" points="44.2 12.51 12.75 67.04 17.28 74.94 44.14 28.78 46.04 31.98 46.04 31.98 61.58 58.64 71.08 58.64 50.46 23.25 48.95 20.59 53.58 12.51 44.2 12.51"/></clipPath><mask id="mask-3" x="-55.76" y="-60.82" width="195.35" height="209.09" maskUnits="userSpaceOnUse"><g class="cls-5"><polygon class="cls-6" points="71.68 148.27 139.58 11.86 12.14 -60.82 -55.76 75.59 71.68 148.27"/></g></mask><linearGradient id="linear-gradient-6" x1="-4973.77" y1="-155.91" x2="-4973.47" y2="-155.91" gradientTransform="matrix(60.89, -122.31, 114.27, 65.17, 320679.02, -598121.91)" gradientUnits="userSpaceOnUse"><stop offset="0" stop-color="#62b6e6"/><stop offset="1" stop-color="#3794c7"/></linearGradient><clipPath id="clip-path-9"><polygon class="cls-3" points="44.2 12.51 71.07 58.64 36.06 58.61 31.25 66.78 85.09 66.77 80.38 58.65 80.38 58.65 53.62 12.51 44.2 12.51"/></clipPath><linearGradient id="linear-gradient-7" x1="-4975.68" y1="-202.52" x2="-4975.38" y2="-202.52" gradientTransform="matrix(189.83, 240.51, -238.6, 191.34, 896211.12, 1235421.51)" gradientUnits="userSpaceOnUse"><stop offset="0" stop-color="#dc2189"/><stop offset="0.58" stop-color="#cf62a5"/><stop offset="0.85" stop-color="#a591c5"/><stop offset="1" stop-color="#af88be"/></linearGradient><mask id="mask-4" x="-47.66" y="-67.03" width="211.66" height="213.35" maskUnits="userSpaceOnUse"><g class="cls-7"><polygon class="cls-8" points="68.05 146.31 164 29.68 48.29 -67.03 -47.66 49.6 68.05 146.31"/></g></mask><linearGradient id="linear-gradient-8" x1="-4968.45" y1="-160.61" x2="-4968.15" y2="-160.61" gradientTransform="matrix(86.35, -104.97, 104.14, 87.04, 445809.09, -507486.08)" gradientUnits="userSpaceOnUse"><stop offset="0" stop-color="#69bbe9"/><stop offset="1" stop-color="#af88be"/></linearGradient><clipPath id="clip-path-11"><rect class="cls-3" x="11.17" y="10.89" width="75" height="85.74"/></clipPath></defs><title>Artboard 1 copy 20</title><g class="cls-9"><polygon class="cls-10" points="-16.36 48.91 46.88 97.86 118.73 54.77 55.48 5.82 -16.36 48.91"/></g><g class="cls-11"><g class="cls-12"><rect class="cls-13" x="17.28" y="28.73" width="67.82" height="46.21"/></g></g><g class="cls-14"><rect class="cls-15" x="6.88" y="10.43" width="70.06" height="66.58" transform="translate(-7.3 79.03) rotate(-81.86)"/></g><g class="cls-14"><g class="cls-16"><rect class="cls-17" x="12.39" y="12.17" width="59.05" height="63.11" transform="translate(-0.5 0.49) rotate(-0.66)"/></g></g><g class="cls-18"><g class="cls-19"><polygon class="cls-20" points="58.18 100.85 95.28 26.31 25.64 -13.4 -11.46 61.13 58.18 100.85"/></g></g><g class="cls-21"><polygon class="cls-22" points="5.02 33.54 52.12 93.22 111.32 45.74 64.22 -13.94 5.02 33.54"/></g><g class="cls-21"><g class="cls-23"><polygon class="cls-24" points="63.15 93.44 111.55 34.62 53.19 -14.16 4.79 44.66 63.15 93.44"/></g></g><g class="cls-25"><path class="cls-26" d="M18.65,80.76l-1.07.63a1.87,1.87,0,0,0-.57-.68,1.52,1.52,0,0,0-1.64.13,1,1,0,0,0-.36.77c0,.42.32.77,1,1l.87.35A3.76,3.76,0,0,1,18.38,84a2.35,2.35,0,0,1,.49,1.52,2.62,2.62,0,0,1-.8,2,2.73,2.73,0,0,1-2,.79,2.69,2.69,0,0,1-1.88-.67,3.13,3.13,0,0,1-.91-1.89l1.34-.29a2.3,2.3,0,0,0,.31,1.06,1.39,1.39,0,0,0,1.19.56,1.35,1.35,0,0,0,1-.41,1.42,1.42,0,0,0,.41-1,1.72,1.72,0,0,0-.07-.47,1.26,1.26,0,0,0-.22-.39,1.62,1.62,0,0,0-.39-.33,3.75,3.75,0,0,0-.57-.3l-.84-.35a2.42,2.42,0,0,1-1.79-2.21A2.12,2.12,0,0,1,14.42,80a2.74,2.74,0,0,1,1.87-.66,2.62,2.62,0,0,1,2.36,1.47"/><polygon class="cls-26" points="22.58 80.69 22.58 88.18 21.26 88.18 21.26 80.69 19.26 80.69 19.26 79.46 24.58 79.46 24.58 80.69 22.58 80.69"/><path class="cls-26" d="M26.62,79.46v5.25A2.91,2.91,0,0,0,27,86.35a2,2,0,0,0,3.09,0,2.78,2.78,0,0,0,.37-1.64V79.46h1.31v5.61a3.13,3.13,0,0,1-.85,2.27,3.21,3.21,0,0,1-2.38,1,3.16,3.16,0,0,1-3.22-3.26V79.46Z"/><path class="cls-26" d="M33.39,88.18V79.46h1.83a6.47,6.47,0,0,1,2.08.26,3.89,3.89,0,0,1,1.48.86,4.17,4.17,0,0,1,1.35,3.24,4.12,4.12,0,0,1-1.4,3.25,4.17,4.17,0,0,1-1.48.86,6.77,6.77,0,0,1-2,.25Zm1.32-1.24h.59a4.73,4.73,0,0,0,1.47-.19,3.19,3.19,0,0,0,1.08-5.26,3.66,3.66,0,0,0-2.55-.8h-.59Z"/><polygon class="cls-26" points="46.15 80.69 42.65 80.69 42.65 82.79 46.05 82.79 46.05 84.03 42.65 84.03 42.65 86.94 46.15 86.94 46.15 88.18 41.34 88.18 41.34 79.46 46.15 79.46 46.15 80.69"/><polygon class="cls-26" points="47.42 88.18 47.42 78.86 53.78 85.52 53.78 79.46 55.1 79.46 55.1 88.71 48.74 82.07 48.74 88.18 47.42 88.18"/><polygon class="cls-26" points="59.14 80.69 59.14 88.18 57.83 88.18 57.83 80.69 55.82 80.69 55.82 79.46 61.14 79.46 61.14 80.69 59.14 80.69"/><polygon class="cls-26" points="66.3 82.87 70.06 82.87 70.06 79.46 71.37 79.46 71.37 88.18 70.06 88.18 70.06 84.11 66.3 84.11 66.3 88.18 64.98 88.18 64.98 79.46 66.3 79.46 66.3 82.87"/><path class="cls-26" d="M74.33,79.46v5.25a2.91,2.91,0,0,0,.36,1.64,1.81,1.81,0,0,0,1.55.75,1.79,1.79,0,0,0,1.54-.75,2.78,2.78,0,0,0,.37-1.64V79.46h1.31v5.61a3.13,3.13,0,0,1-.85,2.27,3.33,3.33,0,0,1-4.74,0A3.14,3.14,0,0,1,73,85.07V79.46Z"/><polygon class="cls-26" points="83.51 80.69 83.51 88.18 82.19 88.18 82.19 80.69 80.19 80.69 80.19 79.46 85.51 79.46 85.51 80.69 83.51 80.69"/></g><polygon class="cls-26" points="18.72 93.26 18.72 96.4 18.17 96.4 18.17 93.26 17.33 93.26 17.33 92.74 19.56 92.74 19.56 93.26 18.72 93.26"/><polygon class="cls-26" points="20.61 94.17 22.19 94.17 22.19 92.74 22.74 92.74 22.74 96.4 22.19 96.4 22.19 94.69 20.61 94.69 20.61 96.4 20.06 96.4 20.06 92.74 20.61 92.74 20.61 94.17"/><polygon class="cls-26" points="25.64 93.26 24.17 93.26 24.17 94.14 25.6 94.14 25.6 94.66 24.17 94.66 24.17 95.88 25.64 95.88 25.64 96.4 23.62 96.4 23.62 92.74 25.64 92.74 25.64 93.26"/><g class="cls-25"><path class="cls-26" d="M29.93,93.28l-.44.27a1,1,0,0,0-.24-.29.57.57,0,0,0-.31-.07.55.55,0,0,0-.38.13.39.39,0,0,0-.15.32c0,.18.13.32.4.43l.36.15a1.51,1.51,0,0,1,.65.44,1,1,0,0,1,.21.64,1.09,1.09,0,0,1-.34.83,1.11,1.11,0,0,1-.84.34,1.13,1.13,0,0,1-.79-.29,1.29,1.29,0,0,1-.38-.79l.56-.12a1,1,0,0,0,.13.44.58.58,0,0,0,.5.24.6.6,0,0,0,.43-.17.64.64,0,0,0,.17-.44.64.64,0,0,0,0-.2.51.51,0,0,0-.09-.16.73.73,0,0,0-.16-.14,1.36,1.36,0,0,0-.24-.13l-.35-.14c-.5-.22-.76-.53-.76-.93a.87.87,0,0,1,.32-.69,1.12,1.12,0,0,1,.79-.28,1.07,1.07,0,0,1,1,.61"/><polygon class="cls-26" points="31.77 93.26 31.77 96.4 31.22 96.4 31.22 93.26 30.38 93.26 30.38 92.74 32.61 92.74 32.61 93.26 31.77 93.26"/><path class="cls-26" d="M33.66,92.74v2.2a1.22,1.22,0,0,0,.15.69.77.77,0,0,0,.65.32.76.76,0,0,0,.65-.32,1.21,1.21,0,0,0,.16-.69v-2.2h.55V95.1a1.36,1.36,0,1,1-2.71,0V92.74Z"/><path class="cls-26" d="M36.7,96.4V92.74h.76a2.66,2.66,0,0,1,.88.11,1.63,1.63,0,0,1,.62.36,1.88,1.88,0,0,1,0,2.72,1.71,1.71,0,0,1-.63.37,2.72,2.72,0,0,1-.86.1Zm.55-.52h.25a2.17,2.17,0,0,0,.62-.08,1.17,1.17,0,0,0,.44-.26,1.26,1.26,0,0,0,.41-1,1.31,1.31,0,0,0-.4-1,1.56,1.56,0,0,0-1.07-.33h-.25Z"/><polygon class="cls-26" points="42.24 93.26 40.77 93.26 40.77 94.14 42.2 94.14 42.2 94.66 40.77 94.66 40.77 95.88 42.24 95.88 42.24 96.4 40.22 96.4 40.22 92.74 42.24 92.74 42.24 93.26"/><polygon class="cls-26" points="42.97 96.4 42.97 92.49 45.64 95.28 45.64 92.74 46.19 92.74 46.19 96.62 43.52 93.84 43.52 96.4 42.97 96.4"/><polygon class="cls-26" points="48.08 93.26 48.08 96.4 47.53 96.4 47.53 93.26 46.68 93.26 46.68 92.74 48.92 92.74 48.92 93.26 48.08 93.26"/><path class="cls-26" d="M52.15,94.84l1.13,1.56h-.67l-1-1.5h-.1v1.5h-.55V92.74h.65a1.65,1.65,0,0,1,1,.27,1,1,0,0,1,.35.8,1,1,0,0,1-.22.67,1,1,0,0,1-.59.36m-.69-.42h.18q.78,0,.78-.6c0-.38-.25-.56-.76-.56h-.2Z"/><polygon class="cls-26" points="55.85 93.26 54.39 93.26 54.39 94.14 55.81 94.14 55.81 94.66 54.39 94.66 54.39 95.88 55.85 95.88 55.85 96.4 53.83 96.4 53.83 92.74 55.85 92.74 55.85 93.26"/><polygon class="cls-26" points="56.77 92.74 57.78 95.28 58.8 92.74 59.41 92.74 57.77 96.67 56.16 92.74 56.77 92.74"/><rect class="cls-26" x="59.86" y="92.74" width="0.55" height="3.66"/><polygon class="cls-26" points="63.32 93.26 61.85 93.26 61.85 94.14 63.27 94.14 63.27 94.66 61.85 94.66 61.85 95.88 63.32 95.88 63.32 96.4 61.3 96.4 61.3 92.74 63.32 92.74 63.32 93.26"/><polygon class="cls-26" points="64.22 92.74 65.18 95.19 66.17 92.56 67.13 95.19 68.14 92.74 68.74 92.74 67.1 96.63 66.16 94.04 65.18 96.63 63.62 92.74 64.22 92.74"/><path class="cls-26" d="M72.76,93.28l-.45.27a.74.74,0,0,0-.24-.29.53.53,0,0,0-.3-.07.55.55,0,0,0-.38.13.39.39,0,0,0-.15.32c0,.18.13.32.39.43l.37.15a1.58,1.58,0,0,1,.65.44,1,1,0,0,1,.21.64,1.09,1.09,0,0,1-.34.83,1.21,1.21,0,0,1-1.63.05,1.29,1.29,0,0,1-.38-.79l.56-.12a.92.92,0,0,0,.13.44.58.58,0,0,0,.5.24.6.6,0,0,0,.43-.17.64.64,0,0,0,.17-.44.64.64,0,0,0,0-.2.51.51,0,0,0-.09-.16.73.73,0,0,0-.16-.14,1.36,1.36,0,0,0-.24-.13l-.35-.14c-.51-.22-.76-.53-.76-.93A.87.87,0,0,1,71,93a1.12,1.12,0,0,1,.78-.28,1.08,1.08,0,0,1,1,.61"/><rect class="cls-26" x="73.52" y="92.74" width="0.55" height="3.66"/><polygon class="cls-26" points="75.97 93.26 75.97 96.4 75.41 96.4 75.41 93.26 74.57 93.26 74.57 92.74 76.81 92.74 76.81 93.26 75.97 93.26"/><polygon class="cls-26" points="79.32 93.26 77.85 93.26 77.85 94.14 79.28 94.14 79.28 94.66 77.85 94.66 77.85 95.88 79.32 95.88 79.32 96.4 77.3 96.4 77.3 92.74 79.32 92.74 79.32 93.26"/></g></svg>