<svg xmlns="http://www.w3.org/2000/svg" xmlns:xlink="http://www.w3.org/1999/xlink" viewBox="0 0 300 250"><defs><style>.cls-1{fill:none;}.cls-2{isolation:isolate;}.cls-3{mix-blend-mode:color-dodge;}.cls-4{clip-path:url(#clip-path);}.cls-5{fill:#38a7df;}</style><clipPath id="clip-path"><rect class="cls-1" x="160.69" y="-0.16" width="242.48" height="250"/></clipPath></defs><title>Artboard 1 copy 20</title><g class="cls-2"><g id="overlay"><g class="cls-3"><g class="cls-4"><path class="cls-5" d="M402.71,78.57,341.05,183.66l122.45-.44ZM316.77,225H585L425.62-48.78H383.56l135.31,233a2.45,2.45,0,0,1-2.11,3.68l-49,.18h0l-129.16.46a2.09,2.09,0,0,1-.4,0Zm-96.9,4.36L240,264.6,377.2,32.15a2.19,2.19,0,0,1,2.12-1.2,2.45,2.45,0,0,1,2.11,1.22l22.83,39.32a2.38,2.38,0,0,1,1,1.76l63.87,110L512.5,183,379.31-46.34ZM244.25,267h321.3l19.67-37.09H312.5a2.46,2.46,0,0,1-2.12-3.69L399.89,73.7l-20.6-35.45Zm-4.29,4.9h0a2.34,2.34,0,0,1-1.55-.58,2.65,2.65,0,0,1-.29-.29h0a2,2,0,0,1-.27-.4l-22.89-40a2.44,2.44,0,0,1,0-2.44L377.16-52.42a3.19,3.19,0,0,1,.26-.38h0a2.57,2.57,0,0,1,.28-.29h0a2.38,2.38,0,0,1,1.56-.58H427a2.45,2.45,0,0,1,2.12,1.22l162.26,278.7h0s0,0,0,0h0a2.39,2.39,0,0,1,.27,1.66,2.46,2.46,0,0,1-.07.29s0,0,0,0a2,2,0,0,1-.18.42l-22.25,42a2.46,2.46,0,0,1-2.17,1.3Z"/></g></g></g></g></svg>